<svg width="57" height="57" viewBox="0 0 57 57" fill="none" xmlns="http://www.w3.org/2000/svg">
<g id="ICON">
<rect width="57" height="57" rx="28.5" fill="#BCB7B7"/>
<path id="menu" d="M28.5 38.4C28.3667 38.4 28.2417 38.375 28.125 38.325C28.0083 38.275 27.9 38.2 27.8 38.1L22.2 32.525C22.0167 32.3417 21.925 32.1083 21.925 31.825C21.925 31.5417 22.0167 31.3 22.2 31.1C22.4 30.9 22.6333 30.8 22.9 30.8C23.1833 30.8 23.425 30.9 23.625 31.1L27.5 35V28.825C27.5 28.5417 27.5917 28.3083 27.775 28.125C27.975 27.925 28.2167 27.825 28.5 27.825C28.7833 27.825 29.0167 27.925 29.2 28.125C29.4 28.3083 29.5 28.5417 29.5 28.825V35L33.4 31.1C33.5833 30.9167 33.8083 30.825 34.075 30.825C34.3583 30.825 34.6 30.925 34.8 31.125C34.9833 31.3083 35.075 31.5417 35.075 31.825C35.075 32.1083 34.9833 32.3417 34.8 32.525L29.2 38.1C29.1 38.2 28.9917 38.275 28.875 38.325C28.7583 38.375 28.6333 38.4 28.5 38.4ZM28.5 25.825C28.2167 25.825 27.975 25.7333 27.775 25.55C27.5917 25.35 27.5 25.1083 27.5 24.825V23.825C27.5 23.5417 27.5917 23.3083 27.775 23.125C27.975 22.925 28.2167 22.825 28.5 22.825C28.7833 22.825 29.0167 22.925 29.2 23.125C29.4 23.3083 29.5 23.5417 29.5 23.825V24.825C29.5 25.1083 29.4 25.35 29.2 25.55C29.0167 25.7333 28.7833 25.825 28.5 25.825ZM28.5 20.825C28.2167 20.825 27.975 20.7333 27.775 20.55C27.5917 20.35 27.5 20.1083 27.5 19.825C27.5 19.5417 27.5917 19.3083 27.775 19.125C27.975 18.925 28.2167 18.825 28.5 18.825C28.7833 18.825 29.0167 18.925 29.2 19.125C29.4 19.3083 29.5 19.5417 29.5 19.825C29.5 20.1083 29.4 20.35 29.2 20.55C29.0167 20.7333 28.7833 20.825 28.5 20.825Z" fill="white"/>
</g>
</svg>
