<svg width="1250" height="993" viewBox="0 0 1250 993" fill="none" xmlns="http://www.w3.org/2000/svg">
<path d="M140.551 114.915C133.951 114.915 127.768 112.371 123.137 107.763L7.21343 -7.59624C2.55665 -12.2174 0 -18.3702 0 -24.9254C0 -31.4806 2.55665 -37.6465 7.21343 -42.2676C11.5963 -46.6421 17.9358 -49.1473 24.6274 -49.1473C31.3191 -49.1473 37.6716 -46.6421 42.0545 -42.2676L157.978 73.0915C167.579 82.6453 167.579 98.1961 157.978 107.763C153.348 112.371 147.152 114.915 140.551 114.915Z" fill="#2CBCEB"/>
<path d="M1110.4 114.915C1103.84 114.915 1097.69 112.371 1093.09 107.763C1088.48 103.142 1085.94 96.9759 1085.94 90.4207C1085.94 83.8655 1088.48 77.7126 1093.09 73.0915L1208.24 -42.2676C1212.59 -46.6421 1218.89 -49.1473 1225.54 -49.1473C1232.18 -49.1473 1238.48 -46.6421 1242.83 -42.2676C1247.46 -37.6465 1250 -31.4806 1250 -24.9254C1250 -18.3702 1247.46 -12.2174 1242.83 -7.59624L1127.69 107.763C1123.1 112.371 1116.96 114.915 1110.4 114.915Z" fill="#F4B250"/>
<path d="M625 992.147C611.456 992.147 600.446 981.104 600.446 967.517V839.309C600.446 825.736 611.456 814.692 625 814.692C638.544 814.692 649.554 825.736 649.554 839.309V967.517C649.554 981.104 638.544 992.147 625 992.147Z" fill="#77BB61"/>
</svg>
