<?xml version="1.0" encoding="UTF-8" standalone="no"?><!DOCTYPE svg PUBLIC "-//W3C//DTD SVG 1.1//EN" "http://www.w3.org/Graphics/SVG/1.1/DTD/svg11.dtd"><svg width="100%" height="100%" viewBox="0 0 5209 3750" version="1.1" xmlns="http://www.w3.org/2000/svg" xmlns:xlink="http://www.w3.org/1999/xlink" xml:space="preserve" xmlns:serif="http://www.serif.com/" style="fill-rule:evenodd;clip-rule:evenodd;stroke-linejoin:round;stroke-miterlimit:2;"><path d="M352.203,0l306.039,304.548c40.004,39.808 40.004,104.603 -0,144.465c-19.292,19.2 -45.109,29.8 -72.613,29.8c-27.5,-0 -53.262,-10.601 -72.558,-29.801l-451.21,-449.012l290.342,-0Z" style="fill:#2cbceb;"/><path d="M5146.87,0l-448.16,449.013c-19.125,19.2 -44.708,29.8 -72.041,29.8c-27.334,-0 -52.959,-10.601 -72.125,-29.801c-19.209,-19.254 -29.792,-44.945 -29.792,-72.259c0,-27.313 10.583,-52.95 29.792,-72.205l303.996,-304.548l288.33,-0Z" style="fill:#f4b250;"/><path d="M2501.86,3750l-0,-252.879c-0,-56.554 45.87,-102.571 102.304,-102.571c56.433,0 102.308,46.017 102.308,102.571l0,252.879l-204.612,0Z" style="fill:#77bb61;"/></svg>