<svg width="1120" height="933" viewBox="0 0 1120 933" fill="none" xmlns="http://www.w3.org/2000/svg">
<path d="M125.934 147C120.02 147 114.48 144.72 110.331 140.592L6.46323 37.2298C2.29076 33.0892 0 27.5763 0 21.7028C0 15.8293 2.29076 10.3048 6.46323 6.16425C10.3903 2.24472 16.0704 0 22.0662 0C28.0619 0 33.7538 2.24472 37.6808 6.16425L141.548 109.526C150.151 118.086 150.151 132.02 141.548 140.592C137.399 144.72 131.848 147 125.934 147Z" fill="#2CBCEB"/>
<path d="M994.919 147C989.044 147 983.53 144.72 979.408 140.592C975.275 136.451 973 130.926 973 125.053C973 119.179 975.275 113.667 979.408 109.526L1082.58 6.16425C1086.48 2.24472 1092.13 0 1098.08 0C1104.04 0 1109.68 2.24472 1113.58 6.16425C1117.72 10.3048 1120 15.8293 1120 21.7028C1120 27.5763 1117.72 33.0892 1113.58 37.2298L1010.41 140.592C1006.3 144.72 1000.79 147 994.919 147Z" fill="#F4B250"/>
<path d="M560 933C547.864 933 538 923.105 538 910.932V796.057C538 783.895 547.864 774 560 774C572.136 774 582 783.895 582 796.057V910.932C582 923.105 572.136 933 560 933Z" fill="#77BB61"/>
</svg>
