<svg width="1920" height="1029" viewBox="0 0 1920 1029" fill="none" xmlns="http://www.w3.org/2000/svg">
<path fill-rule="evenodd" clip-rule="evenodd" d="M1882.02 40.5152C1880.4 40.5152 1878.87 39.8871 1877.73 38.7491C1876.59 37.6077 1875.96 36.0848 1875.96 34.4673C1875.96 32.8464 1876.59 31.3268 1877.73 30.1855L1906.23 1.69854C1907.31 0.617959 1908.87 0 1910.51 0C1912.15 0 1913.71 0.617959 1914.79 1.69854C1915.93 2.83991 1916.56 4.35948 1916.56 5.98374C1916.56 7.60124 1915.93 9.12081 1914.79 10.2588L1886.3 38.7491C1885.16 39.8871 1883.64 40.5152 1882.02 40.5152ZM1858.67 248.541C1857.05 248.541 1855.53 247.913 1854.39 246.772L1825.89 218.288C1824.75 217.147 1824.11 215.627 1824.11 214.01C1824.11 212.385 1824.75 210.866 1825.89 209.728C1826.97 208.644 1828.53 208.026 1830.17 208.026C1831.82 208.026 1833.38 208.644 1834.45 209.728L1862.95 238.211C1865.31 240.572 1865.31 244.411 1862.95 246.772C1861.82 247.913 1860.29 248.541 1858.67 248.541ZM1882.02 248.541C1880.4 248.541 1878.87 247.913 1877.73 246.772C1876.59 245.634 1875.96 244.111 1875.96 242.493C1875.96 240.872 1876.59 239.353 1877.73 238.211L1906.23 209.728C1907.31 208.644 1908.87 208.026 1910.51 208.026C1912.15 208.026 1913.71 208.644 1914.79 209.725C1915.93 210.866 1916.56 212.385 1916.56 214.01C1916.56 215.627 1915.93 217.147 1914.79 218.288L1886.3 246.772C1885.16 247.916 1883.64 248.541 1882.02 248.541ZM1913.94 144.528C1912.32 144.528 1910.8 143.9 1909.66 142.762L1881.16 114.272C1880.02 113.134 1879.4 111.614 1879.4 109.997C1879.4 108.372 1880.02 106.853 1881.16 105.712C1882.24 104.631 1883.8 104.013 1885.45 104.013C1887.09 104.013 1888.65 104.631 1889.73 105.712L1918.23 134.198C1920.59 136.559 1920.59 140.398 1918.23 142.762C1917.09 143.9 1915.57 144.528 1913.94 144.528ZM1826.74 144.528C1825.11 144.528 1823.59 143.9 1822.45 142.762C1821.31 141.621 1820.69 140.098 1820.69 138.48C1820.69 136.859 1821.31 135.34 1822.45 134.198L1850.95 105.712C1852.03 104.631 1853.59 104.013 1855.23 104.013C1856.88 104.013 1858.44 104.631 1859.52 105.712C1860.66 106.853 1861.29 108.372 1861.29 109.997C1861.29 111.614 1860.66 113.134 1859.52 114.272L1831.02 142.762C1829.88 143.903 1828.36 144.528 1826.74 144.528ZM1870.65 92.883C1867.31 92.883 1864.6 90.168 1864.6 86.8283V55.3057C1864.6 51.9694 1867.31 49.251 1870.65 49.251C1873.99 49.251 1876.71 51.9694 1876.71 55.3057V86.8283C1876.71 90.168 1873.99 92.883 1870.65 92.883ZM1870.65 300.909C1867.31 300.909 1864.6 298.194 1864.6 294.854V263.335C1864.6 259.995 1867.31 257.277 1870.65 257.277C1873.99 257.277 1876.71 259.995 1876.71 263.335V294.854C1876.71 298.194 1873.99 300.909 1870.65 300.909ZM1748.12 248.541C1746.5 248.541 1744.97 247.913 1743.83 246.772L1715.34 218.288C1714.19 217.147 1713.56 215.627 1713.56 214.01C1713.56 212.385 1714.19 210.866 1715.34 209.728C1716.41 208.644 1717.97 208.026 1719.62 208.026C1721.26 208.026 1722.82 208.644 1723.9 209.728L1752.4 238.211C1754.76 240.572 1754.76 244.411 1752.4 246.772C1751.26 247.913 1749.74 248.541 1748.12 248.541ZM1771.46 248.541C1769.84 248.541 1768.32 247.913 1767.18 246.772C1766.04 245.634 1765.41 244.111 1765.41 242.493C1765.41 240.872 1766.04 239.353 1767.18 238.211L1795.68 209.728C1796.76 208.644 1798.31 208.026 1799.96 208.026C1801.6 208.026 1803.16 208.644 1804.24 209.725C1805.38 210.866 1806.01 212.385 1806.01 214.01C1806.01 215.627 1805.38 217.147 1804.24 218.288L1775.74 246.772C1774.6 247.916 1773.08 248.541 1771.46 248.541ZM1637.56 248.541C1635.94 248.541 1634.42 247.913 1633.28 246.772L1604.78 218.288C1603.64 217.147 1603.01 215.627 1603.01 214.01C1603.01 212.385 1603.64 210.866 1604.78 209.728C1605.86 208.644 1607.42 208.026 1609.06 208.026C1610.71 208.026 1612.27 208.644 1613.35 209.728L1641.85 238.211C1644.21 240.572 1644.21 244.411 1641.85 246.772C1640.71 247.913 1639.19 248.541 1637.56 248.541ZM1660.91 248.541C1659.29 248.541 1657.77 247.913 1656.63 246.772C1655.49 245.634 1654.86 244.111 1654.86 242.493C1654.86 240.872 1655.49 239.353 1656.63 238.211L1685.12 209.728C1686.2 208.644 1687.76 208.026 1689.4 208.026C1691.05 208.026 1692.61 208.644 1693.69 209.725C1694.83 210.866 1695.46 212.385 1695.46 214.01C1695.46 215.627 1694.83 217.147 1693.69 218.288L1665.19 246.772C1664.05 247.916 1662.53 248.541 1660.91 248.541ZM1803.39 144.528C1801.78 144.528 1800.25 143.9 1799.11 142.762L1770.61 114.272C1769.47 113.134 1768.84 111.614 1768.84 109.997C1768.84 108.372 1769.47 106.853 1770.61 105.712C1771.69 104.631 1773.25 104.013 1774.9 104.013C1776.54 104.013 1778.1 104.631 1779.18 105.712L1807.68 134.198C1810.04 136.559 1810.04 140.398 1807.68 142.762C1806.54 143.9 1805.02 144.528 1803.39 144.528ZM1815.38 196.896C1812.04 196.896 1809.32 194.181 1809.32 190.841V159.322C1809.32 155.982 1812.04 153.264 1815.38 153.264C1818.72 153.264 1821.43 155.982 1821.43 159.322V190.841C1821.43 194.181 1818.72 196.896 1815.38 196.896ZM1716.19 144.528C1714.57 144.528 1713.04 143.9 1711.9 142.762C1710.76 141.621 1710.13 140.098 1710.13 138.48C1710.13 136.859 1710.76 135.34 1711.9 134.198L1740.4 105.712C1741.48 104.631 1743.04 104.013 1744.68 104.013C1746.33 104.013 1747.89 104.631 1748.97 105.712C1750.11 106.853 1750.73 108.372 1750.73 109.997C1750.73 111.614 1750.11 113.134 1748.97 114.272L1720.47 142.762C1719.33 143.903 1717.81 144.528 1716.19 144.528ZM1704.82 196.896C1701.48 196.896 1698.77 194.181 1698.77 190.841V159.322C1698.77 155.982 1701.48 153.264 1704.82 153.264C1708.16 153.264 1710.87 155.982 1710.87 159.322V190.841C1710.87 194.181 1708.16 196.896 1704.82 196.896ZM1748.12 456.567C1746.5 456.567 1744.97 455.942 1743.83 454.805L1715.34 426.314C1714.19 425.173 1713.56 423.653 1713.56 422.036C1713.56 420.415 1714.19 418.892 1715.34 417.754C1716.41 416.67 1717.97 416.052 1719.62 416.052C1721.26 416.052 1722.82 416.67 1723.9 417.754L1752.4 446.237C1754.76 448.598 1754.76 452.441 1752.4 454.805C1751.26 455.942 1749.74 456.567 1748.12 456.567ZM1771.46 456.567C1769.84 456.567 1768.32 455.942 1767.18 454.805C1766.04 453.66 1765.41 452.14 1765.41 450.523C1765.41 448.898 1766.04 447.379 1767.18 446.237L1795.68 417.754C1796.76 416.67 1798.31 416.052 1799.96 416.052C1801.6 416.052 1803.16 416.67 1804.24 417.751C1805.38 418.892 1806.01 420.415 1806.01 422.036C1806.01 423.653 1805.38 425.173 1804.24 426.314L1775.74 454.801C1774.6 455.942 1773.08 456.567 1771.46 456.567ZM1637.56 456.567C1635.94 456.567 1634.42 455.942 1633.28 454.805L1604.78 426.314C1603.64 425.173 1603.01 423.653 1603.01 422.036C1603.01 420.415 1603.64 418.892 1604.78 417.754C1605.86 416.67 1607.42 416.052 1609.06 416.052C1610.71 416.052 1612.27 416.67 1613.35 417.754L1641.85 446.237C1644.21 448.598 1644.21 452.441 1641.85 454.805C1640.71 455.942 1639.19 456.567 1637.56 456.567ZM1660.91 456.567C1659.29 456.567 1657.77 455.942 1656.63 454.805C1655.49 453.66 1654.86 452.14 1654.86 450.523C1654.86 448.898 1655.49 447.379 1656.63 446.237L1685.12 417.754C1686.2 416.67 1687.76 416.052 1689.4 416.052C1691.05 416.052 1692.61 416.67 1693.69 417.751C1694.83 418.892 1695.46 420.415 1695.46 422.036C1695.46 423.653 1694.83 425.173 1693.69 426.314L1665.19 454.801C1664.05 455.942 1662.53 456.567 1660.91 456.567ZM1692.84 352.554C1691.22 352.554 1689.7 351.926 1688.56 350.785L1660.06 322.301C1658.92 321.16 1658.29 319.64 1658.29 318.023C1658.29 316.402 1658.92 314.879 1660.06 313.741C1661.14 312.657 1662.7 312.039 1664.35 312.039C1665.99 312.039 1667.55 312.657 1668.63 313.741L1697.13 342.224C1699.49 344.585 1699.49 348.424 1697.13 350.785C1695.98 351.926 1694.46 352.554 1692.84 352.554ZM1716.19 352.554C1714.57 352.554 1713.04 351.926 1711.9 350.785C1710.76 349.647 1710.13 348.124 1710.13 346.506C1710.13 344.885 1710.76 343.366 1711.9 342.224L1740.4 313.741C1741.48 312.657 1743.04 312.039 1744.68 312.039C1746.33 312.039 1747.89 312.657 1748.97 313.738C1750.11 314.879 1750.73 316.402 1750.73 318.023C1750.73 319.64 1750.11 321.16 1748.97 322.301L1720.47 350.785C1719.33 351.929 1717.81 352.554 1716.19 352.554ZM1704.82 404.922C1701.48 404.922 1698.77 402.207 1698.77 398.867V367.348C1698.77 364.008 1701.48 361.29 1704.82 361.29C1708.16 361.29 1710.87 364.008 1710.87 367.348V398.867C1710.87 402.207 1708.16 404.922 1704.82 404.922ZM1605.64 352.554C1604.01 352.554 1602.49 351.926 1601.35 350.785C1600.21 349.647 1599.58 348.124 1599.58 346.506C1599.58 344.885 1600.21 343.366 1601.35 342.224L1629.85 313.741C1630.93 312.657 1632.48 312.039 1634.13 312.039C1635.77 312.039 1637.34 312.657 1638.41 313.738C1639.55 314.879 1640.18 316.402 1640.18 318.023C1640.18 319.64 1639.55 321.16 1638.41 322.301L1609.92 350.785C1608.77 351.929 1607.26 352.554 1605.64 352.554ZM1760.1 300.909C1756.76 300.909 1754.04 298.194 1754.04 294.854V263.335C1754.04 259.995 1756.76 257.277 1760.1 257.277C1763.44 257.277 1766.15 259.995 1766.15 263.335V294.854C1766.15 298.194 1763.44 300.909 1760.1 300.909ZM1649.55 300.909C1646.21 300.909 1643.49 298.194 1643.49 294.854V263.335C1643.49 259.995 1646.21 257.277 1649.55 257.277C1652.88 257.277 1655.6 259.995 1655.6 263.335V294.854C1655.6 298.194 1652.88 300.909 1649.55 300.909ZM1748.12 664.593C1746.5 664.593 1744.97 663.968 1743.83 662.83L1715.34 634.34C1714.19 633.202 1713.56 631.679 1713.56 630.062C1713.56 628.441 1714.19 626.918 1715.34 625.78C1716.41 624.699 1717.97 624.078 1719.62 624.078C1721.26 624.078 1722.82 624.699 1723.9 625.78L1752.4 654.267C1754.76 656.624 1754.76 660.467 1752.4 662.83C1751.26 663.968 1749.74 664.593 1748.12 664.593ZM1771.46 664.593C1769.84 664.593 1768.32 663.968 1767.18 662.83C1766.04 661.686 1765.41 660.166 1765.41 658.549C1765.41 656.924 1766.04 655.405 1767.18 654.267L1795.68 625.78C1796.76 624.699 1798.31 624.078 1799.96 624.078C1801.6 624.078 1803.16 624.699 1804.24 625.777C1805.38 626.918 1806.01 628.441 1806.01 630.062C1806.01 631.679 1805.38 633.202 1804.24 634.34L1775.74 662.83C1774.6 663.968 1773.08 664.593 1771.46 664.593ZM1637.56 664.593C1635.94 664.593 1634.42 663.968 1633.28 662.83L1604.78 634.34C1603.64 633.202 1603.01 631.679 1603.01 630.062C1603.01 628.441 1603.64 626.918 1604.78 625.78C1605.86 624.699 1607.42 624.078 1609.06 624.078C1610.71 624.078 1612.27 624.699 1613.35 625.78L1641.85 654.267C1644.21 656.624 1644.21 660.467 1641.85 662.83C1640.71 663.968 1639.19 664.593 1637.56 664.593ZM1660.91 664.593C1659.29 664.593 1657.77 663.968 1656.63 662.83C1655.49 661.686 1654.86 660.166 1654.86 658.549C1654.86 656.924 1655.49 655.405 1656.63 654.267L1685.12 625.78C1686.2 624.699 1687.76 624.078 1689.4 624.078C1691.05 624.078 1692.61 624.699 1693.69 625.777C1694.83 626.918 1695.46 628.441 1695.46 630.062C1695.46 631.679 1694.83 633.202 1693.69 634.34L1665.19 662.83C1664.05 663.968 1662.53 664.593 1660.91 664.593ZM1692.84 560.58C1691.22 560.58 1689.7 559.955 1688.56 558.817L1660.06 530.327C1658.92 529.186 1658.29 527.666 1658.29 526.049C1658.29 524.428 1658.92 522.905 1660.06 521.767C1661.14 520.686 1662.7 520.065 1664.35 520.065C1665.99 520.065 1667.55 520.686 1668.63 521.767L1697.13 550.25C1699.49 552.611 1699.49 556.454 1697.13 558.817C1695.98 559.955 1694.46 560.58 1692.84 560.58ZM1716.19 560.58C1714.57 560.58 1713.04 559.955 1711.9 558.817C1710.76 557.673 1710.13 556.153 1710.13 554.536C1710.13 552.911 1710.76 551.392 1711.9 550.25L1740.4 521.767C1741.48 520.686 1743.04 520.065 1744.68 520.065C1746.33 520.065 1747.89 520.686 1748.97 521.764C1750.11 522.905 1750.73 524.428 1750.73 526.049C1750.73 527.666 1750.11 529.186 1748.97 530.327L1720.47 558.814C1719.33 559.955 1717.81 560.58 1716.19 560.58ZM1704.82 612.948C1701.48 612.948 1698.77 610.233 1698.77 606.897V575.374C1698.77 572.038 1701.48 569.316 1704.82 569.316C1708.16 569.316 1710.87 572.038 1710.87 575.374V606.897C1710.87 610.233 1708.16 612.948 1704.82 612.948ZM1605.64 560.58C1604.01 560.58 1602.49 559.955 1601.35 558.817C1600.21 557.673 1599.58 556.153 1599.58 554.536C1599.58 552.911 1600.21 551.392 1601.35 550.25L1629.85 521.767C1630.93 520.686 1632.48 520.065 1634.13 520.065C1635.77 520.065 1637.34 520.686 1638.41 521.764C1639.55 522.905 1640.18 524.428 1640.18 526.049C1640.18 527.666 1639.55 529.186 1638.41 530.327L1609.92 558.814C1608.77 559.955 1607.26 560.58 1605.64 560.58ZM1760.1 508.935C1756.76 508.935 1754.04 506.22 1754.04 502.884V471.361C1754.04 468.021 1756.76 465.303 1760.1 465.303C1763.44 465.303 1766.15 468.021 1766.15 471.361V502.884C1766.15 506.22 1763.44 508.935 1760.1 508.935ZM1649.55 508.935C1646.21 508.935 1643.49 506.22 1643.49 502.884V471.361C1643.49 468.021 1646.21 465.303 1649.55 465.303C1652.88 465.303 1655.6 468.021 1655.6 471.361V502.884C1655.6 506.22 1652.88 508.935 1649.55 508.935ZM1748.12 872.623C1746.5 872.623 1744.97 871.994 1743.83 870.853L1715.34 842.366C1714.19 841.228 1713.56 839.705 1713.56 838.088C1713.56 836.467 1714.19 834.947 1715.34 833.806C1716.41 832.725 1717.97 832.107 1719.62 832.107C1721.26 832.107 1722.82 832.725 1723.9 833.806L1752.4 862.293C1754.76 864.653 1754.76 868.493 1752.4 870.853C1751.26 871.994 1749.74 872.623 1748.12 872.623ZM1637.56 872.623C1635.94 872.623 1634.42 871.994 1633.28 870.853L1604.78 842.366C1603.64 841.228 1603.01 839.705 1603.01 838.088C1603.01 836.467 1603.64 834.947 1604.78 833.806C1605.86 832.725 1607.42 832.107 1609.06 832.107C1610.71 832.107 1612.27 832.725 1613.35 833.806L1641.85 862.293C1644.21 864.653 1644.21 868.493 1641.85 870.853C1640.71 871.994 1639.19 872.623 1637.56 872.623ZM1660.91 872.623C1659.29 872.623 1657.77 871.994 1656.63 870.853C1655.49 869.712 1654.86 868.192 1654.86 866.575C1654.86 864.95 1655.49 863.431 1656.63 862.293L1685.12 833.806C1686.2 832.725 1687.76 832.107 1689.4 832.107C1691.05 832.107 1692.61 832.725 1693.69 833.806C1694.83 834.947 1695.46 836.467 1695.46 838.088C1695.46 839.705 1694.83 841.228 1693.69 842.366L1665.19 870.853C1664.05 871.994 1662.53 872.623 1660.91 872.623ZM1692.84 768.61C1691.22 768.61 1689.7 767.982 1688.56 766.84L1660.06 738.353C1658.92 737.215 1658.29 735.692 1658.29 734.075C1658.29 732.454 1658.92 730.931 1660.06 729.793C1661.14 728.712 1662.7 728.091 1664.35 728.091C1665.99 728.091 1667.55 728.712 1668.63 729.793L1697.13 758.28C1699.49 760.637 1699.49 764.48 1697.13 766.84C1695.98 767.982 1694.46 768.61 1692.84 768.61ZM1716.19 768.61C1714.57 768.61 1713.04 767.982 1711.9 766.84C1710.76 765.699 1710.13 764.179 1710.13 762.562C1710.13 760.937 1710.76 759.418 1711.9 758.28L1740.4 729.793C1741.48 728.712 1743.04 728.091 1744.68 728.091C1746.33 728.091 1747.89 728.712 1748.97 729.793C1750.11 730.931 1750.73 732.454 1750.73 734.075C1750.73 735.692 1750.11 737.215 1748.97 738.353L1720.47 766.84C1719.33 767.982 1717.81 768.61 1716.19 768.61ZM1704.82 820.974C1701.48 820.974 1698.77 818.259 1698.77 814.923V783.4C1698.77 780.064 1701.48 777.345 1704.82 777.345C1708.16 777.345 1710.87 780.064 1710.87 783.4V814.923C1710.87 818.259 1708.16 820.974 1704.82 820.974ZM1760.1 716.961C1756.76 716.961 1754.04 714.246 1754.04 710.91V679.387C1754.04 676.051 1756.76 673.332 1760.1 673.332C1763.44 673.332 1766.15 676.051 1766.15 679.387V710.91C1766.15 714.246 1763.44 716.961 1760.1 716.961ZM1649.55 716.961C1646.21 716.961 1643.49 714.246 1643.49 710.91V679.387C1643.49 676.051 1646.21 673.332 1649.55 673.332C1652.88 673.332 1655.6 676.051 1655.6 679.387V710.91C1655.6 714.246 1652.88 716.961 1649.55 716.961ZM1605.64 976.639C1604.01 976.639 1602.49 976.011 1601.35 974.87C1600.21 973.728 1599.58 972.209 1599.58 970.591C1599.58 968.97 1600.21 967.447 1601.35 966.309L1629.85 937.822C1630.93 936.742 1632.48 936.124 1634.13 936.124C1635.77 936.124 1637.34 936.742 1638.41 937.822C1639.55 938.964 1640.18 940.483 1640.18 942.104C1640.18 943.722 1639.55 945.245 1638.41 946.383L1609.92 974.87C1608.77 976.011 1607.26 976.639 1605.64 976.639ZM1649.55 924.987C1646.21 924.987 1643.49 922.272 1643.49 918.936V887.413C1643.49 884.077 1646.21 881.358 1649.55 881.358C1652.88 881.358 1655.6 884.077 1655.6 887.413V918.936C1655.6 922.272 1652.88 924.987 1649.55 924.987ZM1550.36 248.541C1548.73 248.541 1547.21 247.913 1546.07 246.772C1544.93 245.634 1544.31 244.111 1544.31 242.493C1544.31 240.872 1544.93 239.353 1546.07 238.211L1574.57 209.728C1575.65 208.644 1577.21 208.026 1578.85 208.026C1580.5 208.026 1582.05 208.644 1583.14 209.725C1584.27 210.866 1584.9 212.385 1584.9 214.01C1584.9 215.627 1584.27 217.147 1583.14 218.288L1554.64 246.772C1553.5 247.916 1551.98 248.541 1550.36 248.541ZM1416.46 248.541C1414.84 248.541 1413.32 247.913 1412.17 246.772L1383.68 218.288C1382.54 217.147 1381.9 215.627 1381.9 214.01C1381.9 212.385 1382.54 210.866 1383.68 209.728C1384.76 208.644 1386.31 208.026 1387.96 208.026C1389.6 208.026 1391.16 208.644 1392.25 209.728L1420.74 238.211C1423.11 240.572 1423.11 244.411 1420.74 246.772C1419.6 247.913 1418.08 248.541 1416.46 248.541ZM1594.27 196.896C1590.93 196.896 1588.22 194.181 1588.22 190.841V159.322C1588.22 155.982 1590.93 153.264 1594.27 153.264C1597.61 153.264 1600.33 155.982 1600.33 159.322V190.841C1600.33 194.181 1597.61 196.896 1594.27 196.896ZM1527.01 456.567C1525.39 456.567 1523.87 455.942 1522.73 454.805L1494.23 426.314C1493.09 425.173 1492.46 423.653 1492.46 422.036C1492.46 420.415 1493.09 418.892 1494.23 417.754C1495.31 416.67 1496.87 416.052 1498.51 416.052C1500.16 416.052 1501.72 416.67 1502.8 417.754L1531.29 446.237C1533.65 448.598 1533.65 452.441 1531.29 454.805C1530.15 455.942 1528.63 456.567 1527.01 456.567ZM1550.36 456.567C1548.73 456.567 1547.21 455.942 1546.07 454.805C1544.93 453.66 1544.31 452.14 1544.31 450.523C1544.31 448.898 1544.93 447.379 1546.07 446.237L1574.57 417.754C1575.65 416.67 1577.21 416.052 1578.85 416.052C1580.5 416.052 1582.05 416.67 1583.14 417.751C1584.27 418.892 1584.9 420.415 1584.9 422.036C1584.9 423.653 1584.27 425.173 1583.14 426.314L1554.64 454.801C1553.5 455.942 1551.98 456.567 1550.36 456.567ZM1416.46 456.567C1414.84 456.567 1413.32 455.942 1412.17 454.805L1383.68 426.314C1382.54 425.173 1381.9 423.653 1381.9 422.036C1381.9 420.415 1382.54 418.892 1383.68 417.754C1384.76 416.67 1386.31 416.052 1387.96 416.052C1389.6 416.052 1391.16 416.67 1392.25 417.754L1420.74 446.237C1423.11 448.598 1423.11 452.441 1420.74 454.805C1419.6 455.942 1418.08 456.567 1416.46 456.567ZM1439.8 456.567C1438.18 456.567 1436.66 455.942 1435.52 454.805C1434.38 453.66 1433.75 452.14 1433.75 450.523C1433.75 448.898 1434.38 447.379 1435.52 446.237L1464.02 417.754C1465.1 416.67 1466.65 416.052 1468.3 416.052C1469.95 416.052 1471.5 416.67 1472.58 417.751C1473.72 418.892 1474.35 420.415 1474.35 422.036C1474.35 423.653 1473.72 425.173 1472.58 426.314L1444.08 454.801C1442.94 455.942 1441.42 456.567 1439.8 456.567ZM1582.29 352.554C1580.67 352.554 1579.15 351.926 1578 350.785L1549.51 322.301C1548.37 321.16 1547.73 319.64 1547.73 318.023C1547.73 316.402 1548.37 314.879 1549.51 313.741C1550.59 312.657 1552.15 312.039 1553.79 312.039C1555.44 312.039 1557 312.657 1558.07 313.741L1586.57 342.224C1588.93 344.585 1588.93 348.424 1586.57 350.785C1585.43 351.926 1583.91 352.554 1582.29 352.554ZM1594.27 404.922C1590.93 404.922 1588.22 402.207 1588.22 398.867V367.348C1588.22 364.008 1590.93 361.29 1594.27 361.29C1597.61 361.29 1600.33 364.008 1600.33 367.348V398.867C1600.33 402.207 1597.61 404.922 1594.27 404.922ZM1471.74 352.554C1470.11 352.554 1468.59 351.926 1467.45 350.785L1438.96 322.301C1437.81 321.16 1437.18 319.64 1437.18 318.023C1437.18 316.402 1437.81 314.879 1438.96 313.741C1440.03 312.657 1441.59 312.039 1443.24 312.039C1444.88 312.039 1446.44 312.657 1447.52 313.741L1476.02 342.224C1478.38 344.585 1478.38 348.424 1476.02 350.785C1474.88 351.926 1473.36 352.554 1471.74 352.554ZM1495.08 352.554C1493.46 352.554 1491.94 351.926 1490.8 350.785C1489.66 349.647 1489.03 348.124 1489.03 346.506C1489.03 344.885 1489.66 343.366 1490.8 342.224L1519.29 313.741C1520.38 312.657 1521.93 312.039 1523.58 312.039C1525.22 312.039 1526.78 312.657 1527.86 313.738C1529 314.879 1529.63 316.402 1529.63 318.023C1529.63 319.64 1529 321.16 1527.86 322.301L1499.36 350.785C1498.22 351.929 1496.7 352.554 1495.08 352.554ZM1483.72 404.922C1480.38 404.922 1477.66 402.207 1477.66 398.867V367.348C1477.66 364.008 1480.38 361.29 1483.72 361.29C1487.06 361.29 1489.77 364.008 1489.77 367.348V398.867C1489.77 402.207 1487.06 404.922 1483.72 404.922ZM1384.53 352.554C1382.91 352.554 1381.38 351.926 1380.25 350.785C1379.1 349.647 1378.48 348.124 1378.48 346.506C1378.48 344.885 1379.1 343.366 1380.25 342.224L1408.74 313.741C1409.82 312.657 1411.38 312.039 1413.02 312.039C1414.67 312.039 1416.23 312.657 1417.31 313.738C1418.45 314.879 1419.08 316.402 1419.08 318.023C1419.08 319.64 1418.45 321.16 1417.31 322.301L1388.81 350.785C1387.67 351.929 1386.15 352.554 1384.53 352.554ZM1428.44 300.909C1425.1 300.909 1422.38 298.194 1422.38 294.854V263.335C1422.38 259.995 1425.1 257.277 1428.44 257.277C1431.78 257.277 1434.49 259.995 1434.49 263.335V294.854C1434.49 298.194 1431.78 300.909 1428.44 300.909ZM1527.01 664.593C1525.39 664.593 1523.87 663.968 1522.73 662.83L1494.23 634.34C1493.09 633.202 1492.46 631.679 1492.46 630.062C1492.46 628.441 1493.09 626.918 1494.23 625.78C1495.31 624.699 1496.87 624.078 1498.51 624.078C1500.16 624.078 1501.72 624.699 1502.8 625.78L1531.29 654.267C1533.65 656.624 1533.65 660.467 1531.29 662.83C1530.15 663.968 1528.63 664.593 1527.01 664.593ZM1550.36 664.593C1548.73 664.593 1547.21 663.968 1546.07 662.83C1544.93 661.686 1544.31 660.166 1544.31 658.549C1544.31 656.924 1544.93 655.405 1546.07 654.267L1574.57 625.78C1575.65 624.699 1577.21 624.078 1578.85 624.078C1580.5 624.078 1582.05 624.699 1583.14 625.777C1584.27 626.918 1584.9 628.441 1584.9 630.062C1584.9 631.679 1584.27 633.202 1583.14 634.34L1554.64 662.83C1553.5 663.968 1551.98 664.593 1550.36 664.593ZM1582.29 560.58C1580.67 560.58 1579.15 559.955 1578 558.817L1549.51 530.327C1548.37 529.186 1547.73 527.666 1547.73 526.049C1547.73 524.428 1548.37 522.905 1549.51 521.767C1550.59 520.686 1552.15 520.065 1553.79 520.065C1555.44 520.065 1557 520.686 1558.07 521.767L1586.57 550.25C1588.93 552.611 1588.93 556.454 1586.57 558.817C1585.43 559.955 1583.91 560.58 1582.29 560.58ZM1594.27 612.948C1590.93 612.948 1588.22 610.233 1588.22 606.897V575.374C1588.22 572.038 1590.93 569.316 1594.27 569.316C1597.61 569.316 1600.33 572.038 1600.33 575.374V606.897C1600.33 610.233 1597.61 612.948 1594.27 612.948ZM1495.08 560.58C1493.46 560.58 1491.94 559.955 1490.8 558.817C1489.66 557.673 1489.03 556.153 1489.03 554.536C1489.03 552.911 1489.66 551.392 1490.8 550.25L1519.29 521.767C1520.38 520.686 1521.93 520.065 1523.58 520.065C1525.22 520.065 1526.78 520.686 1527.86 521.764C1529 522.905 1529.63 524.428 1529.63 526.049C1529.63 527.666 1529 529.186 1527.86 530.327L1499.36 558.814C1498.22 559.955 1496.7 560.58 1495.08 560.58ZM1483.72 612.948C1480.38 612.948 1477.66 610.233 1477.66 606.897V575.374C1477.66 572.038 1480.38 569.316 1483.72 569.316C1487.06 569.316 1489.77 572.038 1489.77 575.374V606.897C1489.77 610.233 1487.06 612.948 1483.72 612.948ZM1538.99 508.935C1535.65 508.935 1532.94 506.22 1532.94 502.884V471.361C1532.94 468.021 1535.65 465.303 1538.99 465.303C1542.33 465.303 1545.05 468.021 1545.05 471.361V502.884C1545.05 506.22 1542.33 508.935 1538.99 508.935ZM1538.99 716.961C1535.65 716.961 1532.94 714.246 1532.94 710.91V679.387C1532.94 676.051 1535.65 673.332 1538.99 673.332C1542.33 673.332 1545.05 676.051 1545.05 679.387V710.91C1545.05 714.246 1542.33 716.961 1538.99 716.961ZM1582.29 976.639C1580.67 976.639 1579.15 976.011 1578 974.87L1549.51 946.383C1548.37 945.245 1547.73 943.722 1547.73 942.104C1547.73 940.483 1548.37 938.964 1549.51 937.822C1550.59 936.742 1552.15 936.124 1553.79 936.124C1555.44 936.124 1557 936.742 1558.07 937.822L1586.57 966.309C1588.93 968.67 1588.93 972.509 1586.57 974.87C1585.43 976.011 1583.91 976.639 1582.29 976.639ZM1594.27 1029C1590.93 1029 1588.22 1026.29 1588.22 1022.95V991.426C1588.22 988.09 1590.93 985.371 1594.27 985.371C1597.61 985.371 1600.33 988.09 1600.33 991.426V1022.95C1600.33 1026.29 1597.61 1029 1594.27 1029ZM1471.74 976.639C1470.11 976.639 1468.59 976.011 1467.45 974.87L1438.96 946.383C1437.81 945.245 1437.18 943.722 1437.18 942.104C1437.18 940.483 1437.81 938.964 1438.96 937.822C1440.03 936.742 1441.59 936.124 1443.24 936.124C1444.88 936.124 1446.44 936.742 1447.52 937.822L1476.02 966.309C1478.38 968.67 1478.38 972.509 1476.02 974.87C1474.88 976.011 1473.36 976.639 1471.74 976.639ZM1495.08 976.639C1493.46 976.639 1491.94 976.011 1490.8 974.87C1489.66 973.728 1489.03 972.209 1489.03 970.591C1489.03 968.97 1489.66 967.447 1490.8 966.309L1519.29 937.822C1520.38 936.742 1521.93 936.124 1523.58 936.124C1525.22 936.124 1526.78 936.742 1527.86 937.822C1529 938.964 1529.63 940.483 1529.63 942.104C1529.63 943.722 1529 945.245 1527.86 946.383L1499.36 974.87C1498.22 976.011 1496.7 976.639 1495.08 976.639ZM1483.72 1029C1480.38 1029 1477.66 1026.29 1477.66 1022.95V991.426C1477.66 988.09 1480.38 985.371 1483.72 985.371C1487.06 985.371 1489.77 988.09 1489.77 991.426V1022.95C1489.77 1026.29 1487.06 1029 1483.72 1029ZM1384.53 976.639C1382.91 976.639 1381.38 976.011 1380.25 974.87C1379.1 973.728 1378.48 972.209 1378.48 970.591C1378.48 968.97 1379.1 967.447 1380.25 966.309L1408.74 937.822C1409.82 936.742 1411.38 936.124 1413.02 936.124C1414.67 936.124 1416.23 936.742 1417.31 937.822C1418.45 938.964 1419.08 940.483 1419.08 942.104C1419.08 943.722 1418.45 945.245 1417.31 946.383L1388.81 974.87C1387.67 976.011 1386.15 976.639 1384.53 976.639ZM1195.35 248.541C1193.73 248.541 1192.21 247.913 1191.07 246.772L1162.57 218.288C1161.43 217.147 1160.8 215.627 1160.8 214.01C1160.8 212.385 1161.43 210.866 1162.57 209.728C1163.65 208.644 1165.21 208.026 1166.86 208.026C1168.5 208.026 1170.06 208.644 1171.14 209.728L1199.64 238.211C1202 240.572 1202 244.411 1199.64 246.772C1198.5 247.913 1196.98 248.541 1195.35 248.541ZM1218.7 248.541C1217.08 248.541 1215.56 247.913 1214.41 246.772C1213.27 245.634 1212.65 244.111 1212.65 242.493C1212.65 240.872 1213.27 239.353 1214.41 238.211L1242.91 209.728C1243.99 208.644 1245.55 208.026 1247.2 208.026C1248.84 208.026 1250.4 208.644 1251.48 209.725C1252.62 210.866 1253.24 212.385 1253.24 214.01C1253.24 215.627 1252.62 217.147 1251.48 218.288L1222.98 246.772C1221.84 247.916 1220.32 248.541 1218.7 248.541ZM1262.61 196.896C1259.27 196.896 1256.56 194.181 1256.56 190.841V159.322C1256.56 155.982 1259.27 153.264 1262.61 153.264C1265.95 153.264 1268.67 155.982 1268.67 159.322V190.841C1268.67 194.181 1265.95 196.896 1262.61 196.896ZM1305.91 456.567C1304.29 456.567 1302.76 455.942 1301.63 454.805L1273.13 426.314C1271.98 425.173 1271.36 423.653 1271.36 422.036C1271.36 420.415 1271.98 418.892 1273.13 417.754C1274.2 416.67 1275.76 416.052 1277.41 416.052C1279.05 416.052 1280.62 416.67 1281.69 417.754L1310.19 446.237C1312.55 448.598 1312.55 452.441 1310.19 454.805C1309.05 455.942 1307.53 456.567 1305.91 456.567ZM1329.25 456.567C1327.63 456.567 1326.11 455.942 1324.97 454.805C1323.83 453.66 1323.2 452.14 1323.2 450.523C1323.2 448.898 1323.83 447.379 1324.97 446.237L1353.46 417.754C1354.54 416.67 1356.1 416.052 1357.75 416.052C1359.39 416.052 1360.95 416.67 1362.03 417.751C1363.17 418.892 1363.8 420.415 1363.8 422.036C1363.8 423.653 1363.17 425.173 1362.03 426.314L1333.53 454.801C1332.39 455.942 1330.87 456.567 1329.25 456.567ZM1195.35 456.567C1193.73 456.567 1192.21 455.942 1191.07 454.805L1162.57 426.314C1161.43 425.173 1160.8 423.653 1160.8 422.036C1160.8 420.415 1161.43 418.892 1162.57 417.754C1163.65 416.67 1165.21 416.052 1166.86 416.052C1168.5 416.052 1170.06 416.67 1171.14 417.754L1199.64 446.237C1202 448.598 1202 452.441 1199.64 454.805C1198.5 455.942 1196.98 456.567 1195.35 456.567ZM1218.7 456.567C1217.08 456.567 1215.56 455.942 1214.41 454.805C1213.27 453.66 1212.65 452.14 1212.65 450.523C1212.65 448.898 1213.27 447.379 1214.41 446.237L1242.91 417.754C1243.99 416.67 1245.55 416.052 1247.2 416.052C1248.84 416.052 1250.4 416.67 1251.48 417.751C1252.62 418.892 1253.24 420.415 1253.24 422.036C1253.24 423.653 1252.62 425.173 1251.48 426.314L1222.98 454.801C1221.84 455.942 1220.32 456.567 1218.7 456.567ZM1373.17 404.922C1369.82 404.922 1367.11 402.207 1367.11 398.867V367.348C1367.11 364.008 1369.82 361.29 1373.17 361.29C1376.5 361.29 1379.22 364.008 1379.22 367.348V398.867C1379.22 402.207 1376.5 404.922 1373.17 404.922ZM1250.63 352.554C1249.01 352.554 1247.49 351.926 1246.35 350.785L1217.85 322.301C1216.71 321.16 1216.08 319.64 1216.08 318.023C1216.08 316.402 1216.71 314.879 1217.85 313.741C1218.93 312.657 1220.49 312.039 1222.13 312.039C1223.78 312.039 1225.34 312.657 1226.42 313.741L1254.92 342.224C1257.27 344.585 1257.27 348.424 1254.92 350.785C1253.77 351.926 1252.25 352.554 1250.63 352.554ZM1273.98 352.554C1272.36 352.554 1270.83 351.926 1269.69 350.785C1268.55 349.647 1267.92 348.124 1267.92 346.506C1267.92 344.885 1268.55 343.366 1269.69 342.224L1298.19 313.741C1299.27 312.657 1300.83 312.039 1302.47 312.039C1304.12 312.039 1305.67 312.657 1306.75 313.738C1307.9 314.879 1308.52 316.402 1308.52 318.023C1308.52 319.64 1307.9 321.16 1306.75 322.301L1278.26 350.785C1277.12 351.929 1275.6 352.554 1273.98 352.554ZM1262.61 404.922C1259.27 404.922 1256.56 402.207 1256.56 398.867V367.348C1256.56 364.008 1259.27 361.29 1262.61 361.29C1265.95 361.29 1268.67 364.008 1268.67 367.348V398.867C1268.67 402.207 1265.95 404.922 1262.61 404.922ZM1163.42 352.554C1161.8 352.554 1160.28 351.926 1159.14 350.785C1158 349.647 1157.37 348.124 1157.37 346.506C1157.37 344.885 1158 343.366 1159.14 342.224L1187.64 313.741C1188.71 312.657 1190.27 312.039 1191.92 312.039C1193.56 312.039 1195.12 312.657 1196.2 313.738C1197.34 314.879 1197.97 316.402 1197.97 318.023C1197.97 319.64 1197.34 321.16 1196.2 322.301L1167.7 350.785C1166.56 351.929 1165.04 352.554 1163.42 352.554ZM1152.06 404.922C1148.72 404.922 1146 402.207 1146 398.867V367.348C1146 364.008 1148.72 361.29 1152.06 361.29C1155.4 361.29 1158.11 364.008 1158.11 367.348V398.867C1158.11 402.207 1155.4 404.922 1152.06 404.922ZM1207.34 300.909C1204 300.909 1201.28 298.194 1201.28 294.854V263.335C1201.28 259.995 1204 257.277 1207.34 257.277C1210.68 257.277 1213.39 259.995 1213.39 263.335V294.854C1213.39 298.194 1210.68 300.909 1207.34 300.909ZM1250.63 560.58C1249.01 560.58 1247.49 559.955 1246.35 558.817L1217.85 530.327C1216.71 529.186 1216.08 527.666 1216.08 526.049C1216.08 524.428 1216.71 522.905 1217.85 521.767C1218.93 520.686 1220.49 520.065 1222.13 520.065C1223.78 520.065 1225.34 520.686 1226.42 521.767L1254.92 550.25C1257.27 552.611 1257.27 556.454 1254.92 558.817C1253.77 559.955 1252.25 560.58 1250.63 560.58ZM1273.98 560.58C1272.36 560.58 1270.83 559.955 1269.69 558.817C1268.55 557.673 1267.92 556.153 1267.92 554.536C1267.92 552.911 1268.55 551.392 1269.69 550.25L1298.19 521.767C1299.27 520.686 1300.83 520.065 1302.47 520.065C1304.12 520.065 1305.67 520.686 1306.75 521.764C1307.9 522.905 1308.52 524.428 1308.52 526.049C1308.52 527.666 1307.9 529.186 1306.75 530.327L1278.26 558.814C1277.12 559.955 1275.6 560.58 1273.98 560.58ZM1163.42 560.58C1161.8 560.58 1160.28 559.955 1159.14 558.817C1158 557.673 1157.37 556.153 1157.37 554.536C1157.37 552.911 1158 551.392 1159.14 550.25L1187.64 521.767C1188.71 520.686 1190.27 520.065 1191.92 520.065C1193.56 520.065 1195.12 520.686 1196.2 521.764C1197.34 522.905 1197.97 524.428 1197.97 526.049C1197.97 527.666 1197.34 529.186 1196.2 530.327L1167.7 558.814C1166.56 559.955 1165.04 560.58 1163.42 560.58ZM1317.89 508.935C1314.55 508.935 1311.83 506.22 1311.83 502.884V471.361C1311.83 468.021 1314.55 465.303 1317.89 465.303C1321.23 465.303 1323.94 468.021 1323.94 471.361V502.884C1323.94 506.22 1321.23 508.935 1317.89 508.935ZM1207.34 508.935C1204 508.935 1201.28 506.22 1201.28 502.884V471.361C1201.28 468.021 1204 465.303 1207.34 465.303C1210.68 465.303 1213.39 468.021 1213.39 471.361V502.884C1213.39 506.22 1210.68 508.935 1207.34 508.935ZM1305.91 872.623C1304.29 872.623 1302.76 871.994 1301.63 870.853L1273.13 842.366C1271.98 841.228 1271.36 839.705 1271.36 838.088C1271.36 836.467 1271.98 834.947 1273.13 833.806C1274.2 832.725 1275.76 832.107 1277.41 832.107C1279.05 832.107 1280.62 832.725 1281.69 833.806L1310.19 862.293C1312.55 864.653 1312.55 868.493 1310.19 870.853C1309.05 871.994 1307.53 872.623 1305.91 872.623ZM1329.25 872.623C1327.63 872.623 1326.11 871.994 1324.97 870.853C1323.83 869.712 1323.2 868.192 1323.2 866.575C1323.2 864.95 1323.83 863.431 1324.97 862.293L1353.46 833.806C1354.54 832.725 1356.1 832.107 1357.75 832.107C1359.39 832.107 1360.95 832.725 1362.03 833.806C1363.17 834.947 1363.8 836.467 1363.8 838.088C1363.8 839.705 1363.17 841.228 1362.03 842.366L1333.53 870.853C1332.39 871.994 1330.87 872.623 1329.25 872.623ZM1195.35 872.623C1193.73 872.623 1192.21 871.994 1191.07 870.853L1162.57 842.366C1161.43 841.228 1160.8 839.705 1160.8 838.088C1160.8 836.467 1161.43 834.947 1162.57 833.806C1163.65 832.725 1165.21 832.107 1166.86 832.107C1168.5 832.107 1170.06 832.725 1171.14 833.806L1199.64 862.293C1202 864.653 1202 868.493 1199.64 870.853C1198.5 871.994 1196.98 872.623 1195.35 872.623ZM1218.7 872.623C1217.08 872.623 1215.56 871.994 1214.41 870.853C1213.27 869.712 1212.65 868.192 1212.65 866.575C1212.65 864.95 1213.27 863.431 1214.41 862.293L1242.91 833.806C1243.99 832.725 1245.55 832.107 1247.2 832.107C1248.84 832.107 1250.4 832.725 1251.48 833.806C1252.62 834.947 1253.24 836.467 1253.24 838.088C1253.24 839.705 1252.62 841.228 1251.48 842.366L1222.98 870.853C1221.84 871.994 1220.32 872.623 1218.7 872.623ZM1361.18 976.639C1359.56 976.639 1358.04 976.011 1356.9 974.87L1328.4 946.383C1327.26 945.245 1326.63 943.722 1326.63 942.104C1326.63 940.483 1327.26 938.964 1328.4 937.822C1329.48 936.742 1331.04 936.124 1332.68 936.124C1334.33 936.124 1335.89 936.742 1336.97 937.822L1365.47 966.309C1367.83 968.67 1367.83 972.509 1365.47 974.87C1364.33 976.011 1362.81 976.639 1361.18 976.639ZM1373.17 1029C1369.82 1029 1367.11 1026.29 1367.11 1022.95V991.426C1367.11 988.09 1369.82 985.371 1373.17 985.371C1376.5 985.371 1379.22 988.09 1379.22 991.426V1022.95C1379.22 1026.29 1376.5 1029 1373.17 1029ZM1250.63 976.639C1249.01 976.639 1247.49 976.011 1246.35 974.87L1217.85 946.383C1216.71 945.245 1216.08 943.722 1216.08 942.104C1216.08 940.483 1216.71 938.964 1217.85 937.822C1218.93 936.742 1220.49 936.124 1222.13 936.124C1223.78 936.124 1225.34 936.742 1226.42 937.822L1254.92 966.309C1257.27 968.67 1257.27 972.509 1254.92 974.87C1253.77 976.011 1252.25 976.639 1250.63 976.639ZM1273.98 976.639C1272.36 976.639 1270.83 976.011 1269.69 974.87C1268.55 973.728 1267.92 972.209 1267.92 970.591C1267.92 968.97 1268.55 967.447 1269.69 966.309L1298.19 937.822C1299.27 936.742 1300.83 936.124 1302.47 936.124C1304.12 936.124 1305.67 936.742 1306.75 937.822C1307.9 938.964 1308.52 940.483 1308.52 942.104C1308.52 943.722 1307.9 945.245 1306.75 946.383L1278.26 974.87C1277.12 976.011 1275.6 976.639 1273.98 976.639ZM1262.61 1029C1259.27 1029 1256.56 1026.29 1256.56 1022.95V991.426C1256.56 988.09 1259.27 985.371 1262.61 985.371C1265.95 985.371 1268.67 988.09 1268.67 991.426V1022.95C1268.67 1026.29 1265.95 1029 1262.61 1029ZM1163.42 976.639C1161.8 976.639 1160.28 976.011 1159.14 974.87C1158 973.728 1157.37 972.209 1157.37 970.591C1157.37 968.97 1158 967.447 1159.14 966.309L1187.64 937.822C1188.71 936.742 1190.27 936.124 1191.92 936.124C1193.56 936.124 1195.12 936.742 1196.2 937.822C1197.34 938.964 1197.97 940.483 1197.97 942.104C1197.97 943.722 1197.34 945.245 1196.2 946.383L1167.7 974.87C1166.56 976.011 1165.04 976.639 1163.42 976.639ZM1317.89 924.987C1314.55 924.987 1311.83 922.272 1311.83 918.936V887.413C1311.83 884.077 1314.55 881.358 1317.89 881.358C1321.23 881.358 1323.94 884.077 1323.94 887.413V918.936C1323.94 922.272 1321.23 924.987 1317.89 924.987ZM1207.34 924.987C1204 924.987 1201.28 922.272 1201.28 918.936V887.413C1201.28 884.077 1204 881.358 1207.34 881.358C1210.68 881.358 1213.39 884.077 1213.39 887.413V918.936C1213.39 922.272 1210.68 924.987 1207.34 924.987ZM1084.8 248.541C1083.18 248.541 1081.66 247.913 1080.52 246.772L1052.02 218.288C1050.88 217.147 1050.25 215.627 1050.25 214.01C1050.25 212.385 1050.88 210.866 1052.02 209.728C1053.1 208.644 1054.66 208.026 1056.3 208.026C1057.95 208.026 1059.51 208.644 1060.59 209.728L1089.09 238.211C1091.45 240.572 1091.45 244.411 1089.09 246.772C1087.94 247.913 1086.42 248.541 1084.8 248.541ZM1108.15 248.541C1106.53 248.541 1105.01 247.913 1103.86 246.772C1102.72 245.634 1102.09 244.111 1102.09 242.493C1102.09 240.872 1102.72 239.353 1103.86 238.211L1132.36 209.728C1133.44 208.644 1135 208.026 1136.65 208.026C1138.29 208.026 1139.85 208.644 1140.93 209.725C1142.07 210.866 1142.7 212.385 1142.7 214.01C1142.7 215.627 1142.07 217.147 1140.93 218.288L1112.43 246.772C1111.29 247.916 1109.77 248.541 1108.15 248.541ZM1140.08 144.528C1138.46 144.528 1136.94 143.9 1135.79 142.762L1107.3 114.272C1106.16 113.134 1105.52 111.614 1105.52 109.997C1105.52 108.372 1106.16 106.853 1107.3 105.712C1108.37 104.631 1109.93 104.013 1111.58 104.013C1113.23 104.013 1114.78 104.631 1115.86 105.712L1144.36 134.198C1146.72 136.559 1146.72 140.398 1144.36 142.762C1143.22 143.9 1141.7 144.528 1140.08 144.528ZM1152.06 196.896C1148.72 196.896 1146 194.181 1146 190.841V159.322C1146 155.982 1148.72 153.264 1152.06 153.264C1155.4 153.264 1158.11 155.982 1158.11 159.322V190.841C1158.11 194.181 1155.4 196.896 1152.06 196.896ZM1029.52 144.528C1027.9 144.528 1026.38 143.9 1025.24 142.762L996.742 114.272C995.604 113.134 994.975 111.614 994.975 109.997C994.975 108.372 995.604 106.853 996.742 105.712C997.823 104.631 999.38 104.013 1001.03 104.013C1002.67 104.013 1004.23 104.631 1005.31 105.712L1033.81 134.198C1036.17 136.559 1036.17 140.398 1033.81 142.762C1032.67 143.9 1031.14 144.528 1029.52 144.528ZM1052.87 144.528C1051.25 144.528 1049.73 143.9 1048.58 142.762C1047.45 141.621 1046.82 140.098 1046.82 138.48C1046.82 136.859 1047.45 135.34 1048.58 134.198L1077.08 105.712C1078.16 104.631 1079.72 104.013 1081.36 104.013C1083.01 104.013 1084.57 104.631 1085.65 105.712C1086.79 106.853 1087.42 108.372 1087.42 109.997C1087.42 111.614 1086.79 113.134 1085.65 114.272L1057.15 142.762C1056.01 143.903 1054.49 144.528 1052.87 144.528ZM1041.5 196.896C1038.17 196.896 1035.45 194.181 1035.45 190.841V159.322C1035.45 155.982 1038.17 153.264 1041.5 153.264C1044.84 153.264 1047.56 155.982 1047.56 159.322V190.841C1047.56 194.181 1044.84 196.896 1041.5 196.896ZM942.319 144.528C940.694 144.528 939.174 143.9 938.032 142.762C936.891 141.621 936.262 140.098 936.262 138.48C936.262 136.859 936.891 135.34 938.032 134.198L966.529 105.712C967.61 104.631 969.167 104.013 970.812 104.013C972.458 104.013 974.015 104.631 975.096 105.712C976.234 106.853 976.863 108.372 976.863 109.997C976.863 111.614 976.234 113.134 975.096 114.272L946.596 142.762C945.457 143.903 943.937 144.528 942.319 144.528ZM986.23 92.883C982.892 92.883 980.176 90.168 980.176 86.8283V55.3057C980.176 51.9694 982.892 49.251 986.23 49.251C989.57 49.251 992.286 51.9694 992.286 55.3057V86.8283C992.286 90.168 989.57 92.883 986.23 92.883ZM1084.8 456.567C1083.18 456.567 1081.66 455.942 1080.52 454.805L1052.02 426.314C1050.88 425.173 1050.25 423.653 1050.25 422.036C1050.25 420.415 1050.88 418.892 1052.02 417.754C1053.1 416.67 1054.66 416.052 1056.3 416.052C1057.95 416.052 1059.51 416.67 1060.59 417.754L1089.09 446.237C1091.45 448.598 1091.45 452.441 1089.09 454.805C1087.94 455.942 1086.42 456.567 1084.8 456.567ZM1108.15 456.567C1106.53 456.567 1105.01 455.942 1103.86 454.805C1102.72 453.66 1102.09 452.14 1102.09 450.523C1102.09 448.898 1102.72 447.379 1103.86 446.237L1132.36 417.754C1133.44 416.67 1135 416.052 1136.65 416.052C1138.29 416.052 1139.85 416.67 1140.93 417.751C1142.07 418.892 1142.7 420.415 1142.7 422.036C1142.7 423.653 1142.07 425.173 1140.93 426.314L1112.43 454.801C1111.29 455.942 1109.77 456.567 1108.15 456.567ZM974.248 456.567C972.626 456.567 971.106 455.942 969.965 454.805L941.468 426.314C940.326 425.173 939.694 423.653 939.694 422.036C939.694 420.415 940.326 418.892 941.468 417.754C942.545 416.67 944.106 416.052 945.751 416.052C947.396 416.052 948.957 416.67 950.034 417.754L978.531 446.237C980.892 448.598 980.892 452.441 978.531 454.805C977.393 455.942 975.873 456.567 974.248 456.567ZM1084.8 664.593C1083.18 664.593 1081.66 663.968 1080.52 662.83L1052.02 634.34C1050.88 633.202 1050.25 631.679 1050.25 630.062C1050.25 628.441 1050.88 626.918 1052.02 625.78C1053.1 624.699 1054.66 624.078 1056.3 624.078C1057.95 624.078 1059.51 624.699 1060.59 625.78L1089.09 654.267C1091.45 656.624 1091.45 660.467 1089.09 662.83C1087.94 663.968 1086.42 664.593 1084.8 664.593ZM1108.15 664.593C1106.53 664.593 1105.01 663.968 1103.86 662.83C1102.72 661.686 1102.09 660.166 1102.09 658.549C1102.09 656.924 1102.72 655.405 1103.86 654.267L1132.36 625.78C1133.44 624.699 1135 624.078 1136.65 624.078C1138.29 624.078 1139.85 624.699 1140.93 625.777C1142.07 626.918 1142.7 628.441 1142.7 630.062C1142.7 631.679 1142.07 633.202 1140.93 634.34L1112.43 662.83C1111.29 663.968 1109.77 664.593 1108.15 664.593ZM974.248 664.593C972.626 664.593 971.106 663.968 969.965 662.83L941.468 634.34C940.326 633.202 939.694 631.679 939.694 630.062C939.694 628.441 940.326 626.918 941.468 625.78C942.545 624.699 944.106 624.078 945.751 624.078C947.396 624.078 948.957 624.699 950.034 625.78L978.531 654.267C980.892 656.624 980.892 660.467 978.531 662.83C977.393 663.968 975.873 664.593 974.248 664.593ZM997.597 664.593C995.968 664.593 994.452 663.968 993.31 662.83C992.172 661.686 991.543 660.166 991.543 658.549C991.543 656.924 992.172 655.405 993.31 654.267L1021.81 625.78C1022.89 624.699 1024.44 624.078 1026.09 624.078C1027.74 624.078 1029.29 624.699 1030.37 625.777C1031.52 626.918 1032.14 628.441 1032.14 630.062C1032.14 631.679 1031.52 633.202 1030.37 634.34L1001.88 662.83C1000.73 663.968 999.215 664.593 997.597 664.593ZM1140.08 560.58C1138.46 560.58 1136.94 559.955 1135.79 558.817L1107.3 530.327C1106.16 529.186 1105.52 527.666 1105.52 526.049C1105.52 524.428 1106.16 522.905 1107.3 521.767C1108.37 520.686 1109.93 520.065 1111.58 520.065C1113.23 520.065 1114.78 520.686 1115.86 521.767L1144.36 550.25C1146.72 552.611 1146.72 556.454 1144.36 558.817C1143.22 559.955 1141.7 560.58 1140.08 560.58ZM1152.06 612.948C1148.72 612.948 1146 610.233 1146 606.897V575.374C1146 572.038 1148.72 569.316 1152.06 569.316C1155.4 569.316 1158.11 572.038 1158.11 575.374V606.897C1158.11 610.233 1155.4 612.948 1152.06 612.948ZM1052.87 560.58C1051.25 560.58 1049.73 559.955 1048.58 558.817C1047.45 557.673 1046.82 556.153 1046.82 554.536C1046.82 552.911 1047.45 551.392 1048.58 550.25L1077.08 521.767C1078.16 520.686 1079.72 520.065 1081.36 520.065C1083.01 520.065 1084.57 520.686 1085.65 521.764C1086.79 522.905 1087.42 524.428 1087.42 526.049C1087.42 527.666 1086.79 529.186 1085.65 530.327L1057.15 558.814C1056.01 559.955 1054.49 560.58 1052.87 560.58ZM942.319 560.58C940.694 560.58 939.174 559.955 938.032 558.817C936.891 557.673 936.262 556.153 936.262 554.536C936.262 552.911 936.891 551.392 938.032 550.25L966.529 521.767C967.61 520.686 969.167 520.065 970.812 520.065C972.458 520.065 974.015 520.686 975.096 521.764C976.234 522.905 976.863 524.428 976.863 526.049C976.863 527.666 976.234 529.186 975.096 530.327L946.596 558.814C945.457 559.955 943.937 560.58 942.319 560.58ZM1096.78 508.935C1093.44 508.935 1090.73 506.22 1090.73 502.884V471.361C1090.73 468.021 1093.44 465.303 1096.78 465.303C1100.12 465.303 1102.84 468.021 1102.84 471.361V502.884C1102.84 506.22 1100.12 508.935 1096.78 508.935ZM1084.8 872.623C1083.18 872.623 1081.66 871.994 1080.52 870.853L1052.02 842.366C1050.88 841.228 1050.25 839.705 1050.25 838.088C1050.25 836.467 1050.88 834.947 1052.02 833.806C1053.1 832.725 1054.66 832.107 1056.3 832.107C1057.95 832.107 1059.51 832.725 1060.59 833.806L1089.09 862.293C1091.45 864.653 1091.45 868.493 1089.09 870.853C1087.94 871.994 1086.42 872.623 1084.8 872.623ZM1108.15 872.623C1106.53 872.623 1105.01 871.994 1103.86 870.853C1102.72 869.712 1102.09 868.192 1102.09 866.575C1102.09 864.95 1102.72 863.431 1103.86 862.293L1132.36 833.806C1133.44 832.725 1135 832.107 1136.65 832.107C1138.29 832.107 1139.85 832.725 1140.93 833.806C1142.07 834.947 1142.7 836.467 1142.7 838.088C1142.7 839.705 1142.07 841.228 1140.93 842.366L1112.43 870.853C1111.29 871.994 1109.77 872.623 1108.15 872.623ZM974.248 872.623C972.626 872.623 971.106 871.994 969.965 870.853L941.468 842.366C940.326 841.228 939.694 839.705 939.694 838.088C939.694 836.467 940.326 834.947 941.468 833.806C942.545 832.725 944.106 832.107 945.751 832.107C947.396 832.107 948.957 832.725 950.034 833.806L978.531 862.293C980.892 864.653 980.892 868.493 978.531 870.853C977.393 871.994 975.873 872.623 974.248 872.623ZM997.597 872.623C995.968 872.623 994.452 871.994 993.31 870.853C992.172 869.712 991.543 868.192 991.543 866.575C991.543 864.95 992.172 863.431 993.31 862.293L1021.81 833.806C1022.89 832.725 1024.44 832.107 1026.09 832.107C1027.74 832.107 1029.29 832.725 1030.37 833.806C1031.52 834.947 1032.14 836.467 1032.14 838.088C1032.14 839.705 1031.52 841.228 1030.37 842.366L1001.88 870.853C1000.73 871.994 999.215 872.623 997.597 872.623ZM1029.52 768.61C1027.9 768.61 1026.38 767.982 1025.24 766.84L996.742 738.353C995.604 737.215 994.975 735.692 994.975 734.075C994.975 732.454 995.604 730.931 996.742 729.793C997.823 728.712 999.38 728.091 1001.03 728.091C1002.67 728.091 1004.23 728.712 1005.31 729.793L1033.81 758.28C1036.17 760.637 1036.17 764.48 1033.81 766.84C1032.67 767.982 1031.14 768.61 1029.52 768.61ZM1041.5 820.974C1038.17 820.974 1035.45 818.259 1035.45 814.923V783.4C1035.45 780.064 1038.17 777.345 1041.5 777.345C1044.84 777.345 1047.56 780.064 1047.56 783.4V814.923C1047.56 818.259 1044.84 820.974 1041.5 820.974ZM942.319 768.61C940.694 768.61 939.174 767.982 938.032 766.84C936.891 765.699 936.262 764.179 936.262 762.562C936.262 760.937 936.891 759.418 938.032 758.28L966.529 729.793C967.61 728.712 969.167 728.091 970.812 728.091C972.458 728.091 974.015 728.712 975.096 729.793C976.234 730.931 976.863 732.454 976.863 734.075C976.863 735.692 976.234 737.215 975.096 738.353L946.596 766.84C945.457 767.982 943.937 768.61 942.319 768.61ZM986.23 716.961C982.892 716.961 980.176 714.246 980.176 710.91V679.387C980.176 676.051 982.892 673.332 986.23 673.332C989.57 673.332 992.286 676.051 992.286 679.387V710.91C992.286 714.246 989.57 716.961 986.23 716.961ZM1140.08 976.639C1138.46 976.639 1136.94 976.011 1135.79 974.87L1107.3 946.383C1106.16 945.245 1105.52 943.722 1105.52 942.104C1105.52 940.483 1106.16 938.964 1107.3 937.822C1108.37 936.742 1109.93 936.124 1111.58 936.124C1113.23 936.124 1114.78 936.742 1115.86 937.822L1144.36 966.309C1146.72 968.67 1146.72 972.509 1144.36 974.87C1143.22 976.011 1141.7 976.639 1140.08 976.639ZM1152.06 1029C1148.72 1029 1146 1026.29 1146 1022.95V991.426C1146 988.09 1148.72 985.371 1152.06 985.371C1155.4 985.371 1158.11 988.09 1158.11 991.426V1022.95C1158.11 1026.29 1155.4 1029 1152.06 1029ZM1029.52 976.639C1027.9 976.639 1026.38 976.011 1025.24 974.87L996.742 946.383C995.604 945.245 994.975 943.722 994.975 942.104C994.975 940.483 995.604 938.964 996.742 937.822C997.823 936.742 999.38 936.124 1001.03 936.124C1002.67 936.124 1004.23 936.742 1005.31 937.822L1033.81 966.309C1036.17 968.67 1036.17 972.509 1033.81 974.87C1032.67 976.011 1031.14 976.639 1029.52 976.639ZM1052.87 976.639C1051.25 976.639 1049.73 976.011 1048.58 974.87C1047.45 973.728 1046.82 972.209 1046.82 970.591C1046.82 968.97 1047.45 967.447 1048.58 966.309L1077.08 937.822C1078.16 936.742 1079.72 936.124 1081.36 936.124C1083.01 936.124 1084.57 936.742 1085.65 937.822C1086.79 938.964 1087.42 940.483 1087.42 942.104C1087.42 943.722 1086.79 945.245 1085.65 946.383L1057.15 974.87C1056.01 976.011 1054.49 976.639 1052.87 976.639ZM1041.5 1029C1038.17 1029 1035.45 1026.29 1035.45 1022.95V991.426C1035.45 988.09 1038.17 985.371 1041.5 985.371C1044.84 985.371 1047.56 988.09 1047.56 991.426V1022.95C1047.56 1026.29 1044.84 1029 1041.5 1029ZM942.319 976.639C940.694 976.639 939.174 976.011 938.032 974.87C936.891 973.728 936.262 972.209 936.262 970.591C936.262 968.97 936.891 967.447 938.032 966.309L966.529 937.822C967.61 936.742 969.167 936.124 970.812 936.124C972.458 936.124 974.015 936.742 975.096 937.822C976.234 938.964 976.863 940.483 976.863 942.104C976.863 943.722 976.234 945.245 975.096 946.383L946.596 974.87C945.457 976.011 943.937 976.639 942.319 976.639ZM1096.78 924.987C1093.44 924.987 1090.73 922.272 1090.73 918.936V887.413C1090.73 884.077 1093.44 881.358 1096.78 881.358C1100.12 881.358 1102.84 884.077 1102.84 887.413V918.936C1102.84 922.272 1100.12 924.987 1096.78 924.987ZM986.23 924.987C982.892 924.987 980.176 922.272 980.176 918.936V887.413C980.176 884.077 982.892 881.358 986.23 881.358C989.57 881.358 992.286 884.077 992.286 887.413V918.936C992.286 922.272 989.57 924.987 986.23 924.987ZM918.974 144.528C917.352 144.528 915.832 143.9 914.687 142.762L886.194 114.272C885.049 113.134 884.417 111.614 884.417 109.997C884.417 108.372 885.049 106.853 886.194 105.712C887.271 104.631 888.832 104.013 890.474 104.013C892.122 104.013 893.676 104.631 894.76 105.712L923.257 134.198C925.618 136.559 925.618 140.398 923.257 142.762C922.119 143.9 920.595 144.528 918.974 144.528ZM831.764 144.528C830.143 144.528 828.622 143.9 827.481 142.762C826.339 141.621 825.711 140.098 825.711 138.48C825.711 136.859 826.339 135.34 827.481 134.198L855.978 105.712C857.055 104.631 858.616 104.013 860.257 104.013C861.903 104.013 863.467 104.631 864.541 105.712C865.686 106.853 866.314 108.372 866.314 109.997C866.314 111.614 865.686 113.134 864.541 114.272L836.044 142.762C834.906 143.903 833.385 144.528 831.764 144.528ZM875.678 92.883C872.337 92.883 869.625 90.168 869.625 86.8283V55.3057C869.625 51.9694 872.337 49.251 875.678 49.251C879.019 49.251 881.735 51.9694 881.735 55.3057V86.8283C881.735 90.168 879.019 92.883 875.678 92.883ZM863.696 456.567C862.075 456.567 860.555 455.942 859.413 454.805L830.916 426.314C829.774 425.173 829.146 423.653 829.146 422.036C829.146 420.415 829.774 418.892 830.916 417.754C831.994 416.67 833.551 416.052 835.199 416.052C836.845 416.052 838.402 416.67 839.483 417.754L867.98 446.237C870.341 448.598 870.341 452.441 867.98 454.805C866.838 455.942 865.318 456.567 863.696 456.567ZM887.042 456.567C885.42 456.567 883.9 455.942 882.758 454.805C881.617 453.66 880.988 452.14 880.988 450.523C880.988 448.898 881.617 447.379 882.758 446.237L911.255 417.754C912.333 416.67 913.893 416.052 915.538 416.052C917.183 416.052 918.741 416.67 919.822 417.751C920.96 418.892 921.588 420.415 921.588 422.036C921.588 423.653 920.96 425.173 919.822 426.314L891.322 454.801C890.183 455.942 888.663 456.567 887.042 456.567ZM820.404 404.922C817.063 404.922 814.347 402.207 814.347 398.867V367.348C814.347 364.008 817.063 361.29 820.404 361.29C823.741 361.29 826.457 364.008 826.457 367.348V398.867C826.457 402.207 823.741 404.922 820.404 404.922ZM863.696 664.593C862.075 664.593 860.555 663.968 859.413 662.83L830.916 634.34C829.774 633.202 829.146 631.679 829.146 630.062C829.146 628.441 829.774 626.918 830.916 625.78C831.994 624.699 833.551 624.078 835.199 624.078C836.845 624.078 838.402 624.699 839.483 625.78L867.98 654.267C870.341 656.624 870.341 660.467 867.98 662.83C866.838 663.968 865.318 664.593 863.696 664.593ZM887.042 664.593C885.42 664.593 883.9 663.968 882.758 662.83C881.617 661.686 880.988 660.166 880.988 658.549C880.988 656.924 881.617 655.405 882.758 654.267L911.255 625.78C912.333 624.699 913.893 624.078 915.538 624.078C917.183 624.078 918.741 624.699 919.822 625.777C920.96 626.918 921.588 628.441 921.588 630.062C921.588 631.679 920.96 633.202 919.822 634.34L891.322 662.83C890.183 663.968 888.663 664.593 887.042 664.593ZM918.974 560.58C917.352 560.58 915.832 559.955 914.687 558.817L886.194 530.327C885.049 529.186 884.417 527.666 884.417 526.049C884.417 524.428 885.049 522.905 886.194 521.767C887.271 520.686 888.832 520.065 890.474 520.065C892.122 520.065 893.676 520.686 894.76 521.767L923.257 550.25C925.618 552.611 925.618 556.454 923.257 558.817C922.119 559.955 920.595 560.58 918.974 560.58ZM930.952 612.948C927.615 612.948 924.899 610.233 924.899 606.897V575.374C924.899 572.038 927.615 569.316 930.952 569.316C934.293 569.316 937.009 572.038 937.009 575.374V606.897C937.009 610.233 934.293 612.948 930.952 612.948ZM808.729 294.983C807.108 294.983 805.588 294.355 804.446 293.213L775.949 264.726C774.808 263.588 774.179 262.065 774.179 260.448C774.179 258.827 774.808 257.304 775.949 256.166C777.027 255.085 778.588 254.464 780.233 254.464C781.878 254.464 783.435 255.085 784.516 256.166L813.013 284.653C815.374 287.013 815.374 290.853 813.013 293.213C811.874 294.355 810.351 294.983 808.729 294.983ZM832.075 294.983C830.453 294.983 828.933 294.355 827.792 293.213C826.653 292.072 826.025 290.552 826.025 288.935C826.025 287.311 826.653 285.791 827.792 284.653L856.288 256.166C857.369 255.085 858.927 254.464 860.572 254.464C862.217 254.464 863.774 255.085 864.855 256.166C865.993 257.304 866.622 258.827 866.622 260.448C866.622 262.065 865.993 263.588 864.855 264.726L836.358 293.213C835.216 294.355 833.696 294.983 832.075 294.983ZM820.711 347.347C817.374 347.347 814.658 344.632 814.658 341.296V309.773C814.658 306.437 817.374 303.719 820.711 303.719C824.052 303.719 826.768 306.437 826.768 309.773V341.296C826.768 344.632 824.052 347.347 820.711 347.347ZM875.678 508.935C872.337 508.935 869.625 506.22 869.625 502.884V471.361C869.625 468.021 872.337 465.303 875.678 465.303C879.019 465.303 881.735 468.021 881.735 471.361V502.884C881.735 506.22 879.019 508.935 875.678 508.935ZM863.696 872.623C862.075 872.623 860.555 871.994 859.413 870.853L830.916 842.366C829.774 841.228 829.146 839.705 829.146 838.088C829.146 836.467 829.774 834.947 830.916 833.806C831.994 832.725 833.551 832.107 835.199 832.107C836.845 832.107 838.402 832.725 839.483 833.806L867.98 862.293C870.341 864.653 870.341 868.493 867.98 870.853C866.838 871.994 865.318 872.623 863.696 872.623ZM887.042 872.623C885.42 872.623 883.9 871.994 882.758 870.853C881.617 869.712 880.988 868.192 880.988 866.575C880.988 864.95 881.617 863.431 882.758 862.293L911.255 833.806C912.333 832.725 913.893 832.107 915.538 832.107C917.183 832.107 918.741 832.725 919.822 833.806C920.96 834.947 921.588 836.467 921.588 838.088C921.588 839.705 920.96 841.228 919.822 842.366L891.322 870.853C890.183 871.994 888.663 872.623 887.042 872.623ZM753.141 872.623C751.523 872.623 750 871.994 748.858 870.853L720.361 842.366C719.223 841.228 718.591 839.705 718.591 838.088C718.591 836.467 719.223 834.947 720.361 833.806C721.442 832.725 722.999 832.107 724.644 832.107C726.289 832.107 727.85 832.725 728.931 833.806L757.428 862.293C759.789 864.653 759.789 868.493 757.428 870.853C756.286 871.994 754.766 872.623 753.141 872.623ZM776.49 872.623C774.868 872.623 773.345 871.994 772.207 870.853C771.065 869.712 770.437 868.192 770.437 866.575C770.437 864.95 771.065 863.431 772.207 862.293L800.7 833.806C801.781 832.725 803.338 832.107 804.983 832.107C806.628 832.107 808.189 832.725 809.267 833.806C810.408 834.947 811.037 836.467 811.037 838.088C811.037 839.705 810.408 841.228 809.267 842.366L780.77 870.853C779.631 871.994 778.111 872.623 776.49 872.623ZM918.974 768.61C917.352 768.61 915.832 767.982 914.687 766.84L886.194 738.353C885.049 737.215 884.417 735.692 884.417 734.075C884.417 732.454 885.049 730.931 886.194 729.793C887.271 728.712 888.832 728.091 890.474 728.091C892.122 728.091 893.676 728.712 894.76 729.793L923.257 758.28C925.618 760.637 925.618 764.48 923.257 766.84C922.119 767.982 920.595 768.61 918.974 768.61ZM930.952 820.974C927.615 820.974 924.899 818.259 924.899 814.923V783.4C924.899 780.064 927.615 777.345 930.952 777.345C934.293 777.345 937.009 780.064 937.009 783.4V814.923C937.009 818.259 934.293 820.974 930.952 820.974ZM808.422 768.61C806.801 768.61 805.277 767.982 804.139 766.84L775.639 738.353C774.5 737.215 773.869 735.692 773.869 734.075C773.869 732.454 774.5 730.931 775.639 729.793C776.72 728.712 778.277 728.091 779.922 728.091C781.567 728.091 783.128 728.712 784.205 729.793L812.705 758.28C815.067 760.637 815.067 764.48 812.705 766.84C811.564 767.982 810.044 768.61 808.422 768.61ZM831.764 768.61C830.143 768.61 828.622 767.982 827.481 766.84C826.339 765.699 825.711 764.179 825.711 762.562C825.711 760.937 826.339 759.418 827.481 758.28L855.978 729.793C857.055 728.712 858.616 728.091 860.257 728.091C861.903 728.091 863.467 728.712 864.541 729.793C865.686 730.931 866.314 732.454 866.314 734.075C866.314 735.692 865.686 737.215 864.541 738.353L836.044 766.84C834.906 767.982 833.385 768.61 831.764 768.61ZM820.404 820.974C817.063 820.974 814.347 818.259 814.347 814.923V783.4C814.347 780.064 817.063 777.345 820.404 777.345C823.741 777.345 826.457 780.064 826.457 783.4V814.923C826.457 818.259 823.741 820.974 820.404 820.974ZM721.216 768.61C719.594 768.61 718.071 767.982 716.929 766.84C715.791 765.699 715.162 764.179 715.162 762.562C715.162 760.937 715.791 759.418 716.929 758.28L745.426 729.793C746.507 728.712 748.064 728.091 749.709 728.091C751.354 728.091 752.911 728.712 753.992 729.793C755.131 730.931 755.759 732.454 755.759 734.075C755.759 735.692 755.131 737.215 753.992 738.353L725.496 766.84C724.354 767.982 722.834 768.61 721.216 768.61ZM875.678 716.961C872.337 716.961 869.625 714.246 869.625 710.91V679.387C869.625 676.051 872.337 673.332 875.678 673.332C879.019 673.332 881.735 676.051 881.735 679.387V710.91C881.735 714.246 879.019 716.961 875.678 716.961ZM918.974 976.639C917.352 976.639 915.832 976.011 914.687 974.87L886.194 946.383C885.049 945.245 884.417 943.722 884.417 942.104C884.417 940.483 885.049 938.964 886.194 937.822C887.271 936.742 888.832 936.124 890.474 936.124C892.122 936.124 893.676 936.742 894.76 937.822L923.257 966.309C925.618 968.67 925.618 972.509 923.257 974.87C922.119 976.011 920.595 976.639 918.974 976.639ZM930.952 1029C927.615 1029 924.899 1026.29 924.899 1022.95V991.426C924.899 988.09 927.615 985.371 930.952 985.371C934.293 985.371 937.009 988.09 937.009 991.426V1022.95C937.009 1026.29 934.293 1029 930.952 1029ZM808.422 976.639C806.801 976.639 805.277 976.011 804.139 974.87L775.639 946.383C774.5 945.245 773.869 943.722 773.869 942.104C773.869 940.483 774.5 938.964 775.639 937.822C776.72 936.742 778.277 936.124 779.922 936.124C781.567 936.124 783.128 936.742 784.205 937.822L812.705 966.309C815.067 968.67 815.067 972.509 812.705 974.87C811.564 976.011 810.044 976.639 808.422 976.639ZM831.764 976.639C830.143 976.639 828.622 976.011 827.481 974.87C826.339 973.728 825.711 972.209 825.711 970.591C825.711 968.97 826.339 967.447 827.481 966.309L855.978 937.822C857.055 936.742 858.616 936.124 860.257 936.124C861.903 936.124 863.467 936.742 864.541 937.822C865.686 938.964 866.314 940.483 866.314 942.104C866.314 943.722 865.686 945.245 864.541 946.383L836.044 974.87C834.906 976.011 833.385 976.639 831.764 976.639ZM820.404 1029C817.063 1029 814.347 1026.29 814.347 1022.95V991.426C814.347 988.09 817.063 985.371 820.404 985.371C823.741 985.371 826.457 988.09 826.457 991.426V1022.95C826.457 1026.29 823.741 1029 820.404 1029ZM721.216 976.639C719.594 976.639 718.071 976.011 716.929 974.87C715.791 973.728 715.162 972.209 715.162 970.591C715.162 968.97 715.791 967.447 716.929 966.309L745.426 937.822C746.507 936.742 748.064 936.124 749.709 936.124C751.354 936.124 752.911 936.742 753.992 937.822C755.131 938.964 755.759 940.483 755.759 942.104C755.759 943.722 755.131 945.245 753.992 946.383L725.496 974.87C724.354 976.011 722.834 976.639 721.216 976.639ZM875.678 924.987C872.337 924.987 869.625 922.272 869.625 918.936V887.413C869.625 884.077 872.337 881.358 875.678 881.358C879.019 881.358 881.735 884.077 881.735 887.413V918.936C881.735 922.272 879.019 924.987 875.678 924.987ZM765.126 924.987C761.786 924.987 759.07 922.272 759.07 918.936V887.413C759.07 884.077 761.786 881.358 765.126 881.358C768.464 881.358 771.18 884.077 771.18 887.413V918.936C771.18 922.272 768.464 924.987 765.126 924.987ZM587.315 352.554C585.694 352.554 584.174 351.926 583.032 350.785L554.535 322.301C553.393 321.16 552.762 319.64 552.762 318.023C552.762 316.402 553.393 314.879 554.535 313.741C555.613 312.657 557.17 312.039 558.815 312.039C560.46 312.039 562.021 312.657 563.102 313.741L591.599 342.224C593.96 344.585 593.96 348.424 591.599 350.785C590.46 351.926 588.937 352.554 587.315 352.554ZM610.664 352.554C609.039 352.554 607.519 351.926 606.377 350.785C605.236 349.647 604.607 348.124 604.607 346.506C604.607 344.885 605.236 343.366 606.377 342.224L634.874 313.741C635.955 312.657 637.512 312.039 639.157 312.039C640.803 312.039 642.36 312.657 643.441 313.738C644.579 314.879 645.207 316.402 645.207 318.023C645.207 319.64 644.579 321.16 643.441 322.301L614.941 350.785C613.802 351.929 612.282 352.554 610.664 352.554ZM500.109 352.554C498.488 352.554 496.964 351.926 495.826 350.785C494.684 349.647 494.056 348.124 494.056 346.506C494.056 344.885 494.684 343.366 495.826 342.224L524.322 313.741C525.4 312.657 526.957 312.039 528.602 312.039C530.247 312.039 531.812 312.657 532.886 313.738C534.031 314.879 534.659 316.402 534.659 318.023C534.659 319.64 534.031 321.16 532.886 322.301L504.389 350.785C503.251 351.929 501.73 352.554 500.109 352.554ZM642.59 664.593C640.968 664.593 639.448 663.968 638.306 662.83L609.809 634.34C608.668 633.202 608.036 631.679 608.036 630.062C608.036 628.441 608.668 626.918 609.809 625.78C610.887 624.699 612.448 624.078 614.093 624.078C615.738 624.078 617.295 624.699 618.376 625.78L646.873 654.267C649.234 656.624 649.234 660.467 646.873 662.83C645.734 663.968 644.211 664.593 642.59 664.593ZM532.041 664.593C530.42 664.593 528.9 663.968 527.758 662.83L499.258 634.34C498.119 633.202 497.488 631.679 497.488 630.062C497.488 628.441 498.119 626.918 499.258 625.78C500.339 624.699 501.896 624.078 503.541 624.078C505.183 624.078 506.747 624.699 507.828 625.78L536.325 654.267C538.686 656.624 538.686 660.467 536.325 662.83C535.183 663.968 533.663 664.593 532.041 664.593ZM555.383 664.593C553.762 664.593 552.238 663.968 551.1 662.83C549.958 661.686 549.33 660.166 549.33 658.549C549.33 656.924 549.958 655.405 551.1 654.267L579.597 625.78C580.674 624.699 582.235 624.078 583.88 624.078C585.525 624.078 587.082 624.699 588.16 625.777C589.302 626.918 589.933 628.441 589.933 630.062C589.933 631.679 589.302 633.202 588.16 634.34L559.663 662.83C558.525 663.968 557.005 664.593 555.383 664.593ZM599.297 612.948C595.956 612.948 593.244 610.233 593.244 606.897V575.374C593.244 572.038 595.956 569.316 599.297 569.316C602.638 569.316 605.35 572.038 605.35 575.374V606.897C605.35 610.233 602.638 612.948 599.297 612.948ZM500.109 560.58C498.488 560.58 496.964 559.955 495.826 558.817C494.684 557.673 494.056 556.153 494.056 554.536C494.056 552.911 494.684 551.392 495.826 550.25L524.322 521.767C525.4 520.686 526.957 520.065 528.602 520.065C530.247 520.065 531.812 520.686 532.886 521.764C534.031 522.905 534.659 524.428 534.659 526.049C534.659 527.666 534.031 529.186 532.886 530.327L504.389 558.814C503.251 559.955 501.73 560.58 500.109 560.58ZM532.041 872.623C530.42 872.623 528.9 871.994 527.758 870.853L499.258 842.366C498.119 841.228 497.488 839.705 497.488 838.088C497.488 836.467 498.119 834.947 499.258 833.806C500.339 832.725 501.896 832.107 503.541 832.107C505.183 832.107 506.747 832.725 507.828 833.806L536.325 862.293C538.686 864.653 538.686 868.493 536.325 870.853C535.183 871.994 533.663 872.623 532.041 872.623ZM697.867 768.61C696.246 768.61 694.725 767.982 693.584 766.84L665.087 738.353C663.945 737.215 663.317 735.692 663.317 734.075C663.317 732.454 663.945 730.931 665.087 729.793C666.168 728.712 667.725 728.091 669.37 728.091C671.015 728.091 672.573 728.712 673.654 729.793L702.15 758.28C704.512 760.637 704.512 764.48 702.15 766.84C701.012 767.982 699.488 768.61 697.867 768.61ZM709.849 820.974C706.511 820.974 703.795 818.259 703.795 814.923V783.4C703.795 780.064 706.511 777.345 709.849 777.345C713.19 777.345 715.906 780.064 715.906 783.4V814.923C715.906 818.259 713.19 820.974 709.849 820.974ZM587.315 768.61C585.694 768.61 584.174 767.982 583.032 766.84L554.535 738.353C553.393 737.215 552.762 735.692 552.762 734.075C552.762 732.454 553.393 730.931 554.535 729.793C555.613 728.712 557.17 728.091 558.815 728.091C560.46 728.091 562.021 728.712 563.102 729.793L591.599 758.28C593.96 760.637 593.96 764.48 591.599 766.84C590.46 767.982 588.937 768.61 587.315 768.61ZM610.664 768.61C609.039 768.61 607.519 767.982 606.377 766.84C605.236 765.699 604.607 764.179 604.607 762.562C604.607 760.937 605.236 759.418 606.377 758.28L634.874 729.793C635.955 728.712 637.512 728.091 639.157 728.091C640.803 728.091 642.36 728.712 643.441 729.793C644.579 730.931 645.207 732.454 645.207 734.075C645.207 735.692 644.579 737.215 643.441 738.353L614.941 766.84C613.802 767.982 612.282 768.61 610.664 768.61ZM654.571 716.961C651.234 716.961 648.518 714.246 648.518 710.91V679.387C648.518 676.051 651.234 673.332 654.571 673.332C657.912 673.332 660.628 676.051 660.628 679.387V710.91C660.628 714.246 657.912 716.961 654.571 716.961ZM544.02 716.961C540.679 716.961 537.963 714.246 537.963 710.91V679.387C537.963 676.051 540.679 673.332 544.02 673.332C547.357 673.332 550.073 676.051 550.073 679.387V710.91C550.073 714.246 547.357 716.961 544.02 716.961ZM697.867 976.639C696.246 976.639 694.725 976.011 693.584 974.87L665.087 946.383C663.945 945.245 663.317 943.722 663.317 942.104C663.317 940.483 663.945 938.964 665.087 937.822C666.168 936.742 667.725 936.124 669.37 936.124C671.015 936.124 672.573 936.742 673.654 937.822L702.15 966.309C704.512 968.67 704.512 972.509 702.15 974.87C701.012 976.011 699.488 976.639 697.867 976.639ZM709.849 1029C706.511 1029 703.795 1026.29 703.795 1022.95V991.426C703.795 988.09 706.511 985.371 709.849 985.371C713.19 985.371 715.906 988.09 715.906 991.426V1022.95C715.906 1026.29 713.19 1029 709.849 1029ZM587.315 976.639C585.694 976.639 584.174 976.011 583.032 974.87L554.535 946.383C553.393 945.245 552.762 943.722 552.762 942.104C552.762 940.483 553.393 938.964 554.535 937.822C555.613 936.742 557.17 936.124 558.815 936.124C560.46 936.124 562.021 936.742 563.102 937.822L591.599 966.309C593.96 968.67 593.96 972.509 591.599 974.87C590.46 976.011 588.937 976.639 587.315 976.639ZM610.664 976.639C609.039 976.639 607.519 976.011 606.377 974.87C605.236 973.728 604.607 972.209 604.607 970.591C604.607 968.97 605.236 967.447 606.377 966.309L634.874 937.822C635.955 936.742 637.512 936.124 639.157 936.124C640.803 936.124 642.36 936.742 643.441 937.822C644.579 938.964 645.207 940.483 645.207 942.104C645.207 943.722 644.579 945.245 643.441 946.383L614.941 974.87C613.802 976.011 612.282 976.639 610.664 976.639ZM599.297 1029C595.956 1029 593.244 1026.29 593.244 1022.95V991.426C593.244 988.09 595.956 985.371 599.297 985.371C602.638 985.371 605.35 988.09 605.35 991.426V1022.95C605.35 1026.29 602.638 1029 599.297 1029ZM500.109 976.639C498.488 976.639 496.964 976.011 495.826 974.87C494.684 973.728 494.056 972.209 494.056 970.591C494.056 968.97 494.684 967.447 495.826 966.309L524.322 937.822C525.4 936.742 526.957 936.124 528.602 936.124C530.247 936.124 531.812 936.742 532.886 937.822C534.031 938.964 534.659 940.483 534.659 942.104C534.659 943.722 534.031 945.245 532.886 946.383L504.389 974.87C503.251 976.011 501.73 976.639 500.109 976.639ZM421.486 456.567C419.868 456.567 418.345 455.942 417.203 454.805L388.706 426.314C387.564 425.173 386.933 423.653 386.933 422.036C386.933 420.415 387.564 418.892 388.706 417.754C389.787 416.67 391.344 416.052 392.989 416.052C394.634 416.052 396.195 416.67 397.273 417.754L425.773 446.237C428.131 448.598 428.131 452.441 425.773 454.805C424.631 455.942 423.108 456.567 421.486 456.567ZM444.832 456.567C443.21 456.567 441.687 455.942 440.545 454.805C439.406 453.66 438.778 452.14 438.778 450.523C438.778 448.898 439.406 447.379 440.545 446.237L469.042 417.754C470.123 416.67 471.68 416.052 473.325 416.052C474.97 416.052 476.531 416.67 477.608 417.751C478.75 418.892 479.378 420.415 479.378 422.036C479.378 423.653 478.75 425.173 477.608 426.314L449.111 454.801C447.97 455.942 446.453 456.567 444.832 456.567ZM310.935 456.567C309.313 456.567 307.793 455.942 306.651 454.805L278.154 426.314C277.013 425.173 276.381 423.653 276.381 422.036C276.381 420.415 277.013 418.892 278.154 417.754C279.232 416.67 280.793 416.052 282.438 416.052C284.083 416.052 285.64 416.67 286.721 417.754L315.218 446.237C317.579 448.598 317.579 452.441 315.218 454.805C314.076 455.942 312.556 456.567 310.935 456.567ZM334.276 456.567C332.655 456.567 331.135 455.942 329.993 454.805C328.851 453.66 328.223 452.14 328.223 450.523C328.223 448.898 328.851 447.379 329.993 446.237L358.49 417.754C359.567 416.67 361.128 416.052 362.773 416.052C364.418 416.052 365.979 416.67 367.056 417.751C368.198 418.892 368.827 420.415 368.827 422.036C368.827 423.653 368.198 425.173 367.056 426.314L338.556 454.801C337.418 455.942 335.898 456.567 334.276 456.567ZM476.764 352.554C475.142 352.554 473.619 351.926 472.48 350.785L443.98 322.301C442.842 321.16 442.21 319.64 442.21 318.023C442.21 316.402 442.842 314.879 443.98 313.741C445.061 312.657 446.618 312.039 448.264 312.039C449.909 312.039 451.469 312.657 452.547 313.741L481.047 342.224C483.408 344.585 483.408 348.424 481.047 350.785C479.905 351.926 478.385 352.554 476.764 352.554ZM488.745 404.922C485.405 404.922 482.689 402.207 482.689 398.867V367.348C482.689 364.008 485.405 361.29 488.745 361.29C492.083 361.29 494.799 364.008 494.799 367.348V398.867C494.799 402.207 492.083 404.922 488.745 404.922ZM366.209 352.554C364.587 352.554 363.067 351.926 361.925 350.785L333.429 322.301C332.287 321.16 331.658 319.64 331.658 318.023C331.658 316.402 332.287 314.879 333.429 313.741C334.506 312.657 336.067 312.039 337.712 312.039C339.357 312.039 340.914 312.657 341.995 313.741L370.492 342.224C372.853 344.585 372.853 348.424 370.492 350.785C369.354 351.926 367.83 352.554 366.209 352.554ZM389.554 352.554C387.933 352.554 386.412 351.926 385.271 350.785C384.132 349.647 383.504 348.124 383.504 346.506C383.504 344.885 384.132 343.366 385.271 342.224L413.767 313.741C414.848 312.657 416.406 312.039 418.051 312.039C419.696 312.039 421.253 312.657 422.334 313.738C423.472 314.879 424.101 316.402 424.101 318.023C424.101 319.64 423.472 321.16 422.334 322.301L393.837 350.785C392.695 351.929 391.175 352.554 389.554 352.554ZM378.19 404.922C374.853 404.922 372.137 402.207 372.137 398.867V367.348C372.137 364.008 374.853 361.29 378.19 361.29C381.531 361.29 384.247 364.008 384.247 367.348V398.867C384.247 402.207 381.531 404.922 378.19 404.922ZM279.002 352.554C277.381 352.554 275.861 351.926 274.719 350.785C273.577 349.647 272.949 348.124 272.949 346.506C272.949 344.885 273.577 343.366 274.719 342.224L303.216 313.741C304.293 312.657 305.851 312.039 307.499 312.039C309.144 312.039 310.701 312.657 311.779 313.738C312.921 314.879 313.549 316.402 313.549 318.023C313.549 319.64 312.921 321.16 311.779 322.301L283.282 350.785C282.144 351.929 280.624 352.554 279.002 352.554ZM433.465 300.909C430.127 300.909 427.411 298.194 427.411 294.854V263.335C427.411 259.995 430.127 257.277 433.465 257.277C436.805 257.277 439.521 259.995 439.521 263.335V294.854C439.521 298.194 436.805 300.909 433.465 300.909ZM322.916 300.909C319.575 300.909 316.859 298.194 316.859 294.854V263.335C316.859 259.995 319.575 257.277 322.916 257.277C326.257 257.277 328.97 259.995 328.97 263.335V294.854C328.97 298.194 326.257 300.909 322.916 300.909ZM421.486 664.593C419.868 664.593 418.345 663.968 417.203 662.83L388.706 634.34C387.564 633.202 386.933 631.679 386.933 630.062C386.933 628.441 387.564 626.918 388.706 625.78C389.787 624.699 391.344 624.078 392.989 624.078C394.634 624.078 396.195 624.699 397.273 625.78L425.773 654.267C428.131 656.624 428.131 660.467 425.773 662.83C424.631 663.968 423.108 664.593 421.486 664.593ZM444.832 664.593C443.21 664.593 441.687 663.968 440.545 662.83C439.406 661.686 438.778 660.166 438.778 658.549C438.778 656.924 439.406 655.405 440.545 654.267L469.042 625.78C470.123 624.699 471.68 624.078 473.325 624.078C474.97 624.078 476.531 624.699 477.608 625.777C478.75 626.918 479.378 628.441 479.378 630.062C479.378 631.679 478.75 633.202 477.608 634.34L449.111 662.83C447.97 663.968 446.453 664.593 444.832 664.593ZM310.935 664.593C309.313 664.593 307.793 663.968 306.651 662.83L278.154 634.34C277.013 633.202 276.381 631.679 276.381 630.062C276.381 628.441 277.013 626.918 278.154 625.78C279.232 624.699 280.793 624.078 282.438 624.078C284.083 624.078 285.64 624.699 286.721 625.78L315.218 654.267C317.579 656.624 317.579 660.467 315.218 662.83C314.076 663.968 312.556 664.593 310.935 664.593ZM334.276 664.593C332.655 664.593 331.135 663.968 329.993 662.83C328.851 661.686 328.223 660.166 328.223 658.549C328.223 656.924 328.851 655.405 329.993 654.267L358.49 625.78C359.567 624.699 361.128 624.078 362.773 624.078C364.418 624.078 365.979 624.699 367.056 625.777C368.198 626.918 368.827 628.441 368.827 630.062C368.827 631.679 368.198 633.202 367.056 634.34L338.556 662.83C337.418 663.968 335.898 664.593 334.276 664.593ZM476.764 560.58C475.142 560.58 473.619 559.955 472.48 558.817L443.98 530.327C442.842 529.186 442.21 527.666 442.21 526.049C442.21 524.428 442.842 522.905 443.98 521.767C445.061 520.686 446.618 520.065 448.264 520.065C449.909 520.065 451.469 520.686 452.547 521.767L481.047 550.25C483.408 552.611 483.408 556.454 481.047 558.817C479.905 559.955 478.385 560.58 476.764 560.58ZM488.745 612.948C485.405 612.948 482.689 610.233 482.689 606.897V575.374C482.689 572.038 485.405 569.316 488.745 569.316C492.083 569.316 494.799 572.038 494.799 575.374V606.897C494.799 610.233 492.083 612.948 488.745 612.948ZM366.209 560.58C364.587 560.58 363.067 559.955 361.925 558.817L333.429 530.327C332.287 529.186 331.658 527.666 331.658 526.049C331.658 524.428 332.287 522.905 333.429 521.767C334.506 520.686 336.067 520.065 337.712 520.065C339.357 520.065 340.914 520.686 341.995 521.767L370.492 550.25C372.853 552.611 372.853 556.454 370.492 558.817C369.354 559.955 367.83 560.58 366.209 560.58ZM389.554 560.58C387.933 560.58 386.412 559.955 385.271 558.817C384.132 557.673 383.504 556.153 383.504 554.536C383.504 552.911 384.132 551.392 385.271 550.25L413.767 521.767C414.848 520.686 416.406 520.065 418.051 520.065C419.696 520.065 421.253 520.686 422.334 521.764C423.472 522.905 424.101 524.428 424.101 526.049C424.101 527.666 423.472 529.186 422.334 530.327L393.837 558.814C392.695 559.955 391.175 560.58 389.554 560.58ZM378.19 612.948C374.853 612.948 372.137 610.233 372.137 606.897V575.374C372.137 572.038 374.853 569.316 378.19 569.316C381.531 569.316 384.247 572.038 384.247 575.374V606.897C384.247 610.233 381.531 612.948 378.19 612.948ZM433.465 508.935C430.127 508.935 427.411 506.22 427.411 502.884V471.361C427.411 468.021 430.127 465.303 433.465 465.303C436.805 465.303 439.521 468.021 439.521 471.361V502.884C439.521 506.22 436.805 508.935 433.465 508.935ZM322.916 508.935C319.575 508.935 316.859 506.22 316.859 502.884V471.361C316.859 468.021 319.575 465.303 322.916 465.303C326.257 465.303 328.97 468.021 328.97 471.361V502.884C328.97 506.22 326.257 508.935 322.916 508.935ZM421.486 872.623C419.868 872.623 418.345 871.994 417.203 870.853L388.706 842.366C387.564 841.228 386.933 839.705 386.933 838.088C386.933 836.467 387.564 834.947 388.706 833.806C389.787 832.725 391.344 832.107 392.989 832.107C394.634 832.107 396.195 832.725 397.273 833.806L425.773 862.293C428.131 864.653 428.131 868.493 425.773 870.853C424.631 871.994 423.108 872.623 421.486 872.623ZM444.832 872.623C443.21 872.623 441.687 871.994 440.545 870.853C439.406 869.712 438.778 868.192 438.778 866.575C438.778 864.95 439.406 863.431 440.545 862.293L469.042 833.806C470.123 832.725 471.68 832.107 473.325 832.107C474.97 832.107 476.531 832.725 477.608 833.806C478.75 834.947 479.378 836.467 479.378 838.088C479.378 839.705 478.75 841.228 477.608 842.366L449.111 870.853C447.97 871.994 446.453 872.623 444.832 872.623ZM334.276 872.623C332.655 872.623 331.135 871.994 329.993 870.853C328.851 869.712 328.223 868.192 328.223 866.575C328.223 864.95 328.851 863.431 329.993 862.293L358.49 833.806C359.567 832.725 361.128 832.107 362.773 832.107C364.418 832.107 365.979 832.725 367.056 833.806C368.198 834.947 368.827 836.467 368.827 838.088C368.827 839.705 368.198 841.228 367.056 842.366L338.556 870.853C337.418 871.994 335.898 872.623 334.276 872.623ZM366.209 768.61C364.587 768.61 363.067 767.982 361.925 766.84L333.429 738.353C332.287 737.215 331.658 735.692 331.658 734.075C331.658 732.454 332.287 730.931 333.429 729.793C334.506 728.712 336.067 728.091 337.712 728.091C339.357 728.091 340.914 728.712 341.995 729.793L370.492 758.28C372.853 760.637 372.853 764.48 370.492 766.84C369.354 767.982 367.83 768.61 366.209 768.61ZM389.554 768.61C387.933 768.61 386.412 767.982 385.271 766.84C384.132 765.699 383.504 764.179 383.504 762.562C383.504 760.937 384.132 759.418 385.271 758.28L413.767 729.793C414.848 728.712 416.406 728.091 418.051 728.091C419.696 728.091 421.253 728.712 422.334 729.793C423.472 730.931 424.101 732.454 424.101 734.075C424.101 735.692 423.472 737.215 422.334 738.353L393.837 766.84C392.695 767.982 391.175 768.61 389.554 768.61ZM378.19 820.974C374.853 820.974 372.137 818.259 372.137 814.923V783.4C372.137 780.064 374.853 777.345 378.19 777.345C381.531 777.345 384.247 780.064 384.247 783.4V814.923C384.247 818.259 381.531 820.974 378.19 820.974ZM433.465 716.961C430.127 716.961 427.411 714.246 427.411 710.91V679.387C427.411 676.051 430.127 673.332 433.465 673.332C436.805 673.332 439.521 676.051 439.521 679.387V710.91C439.521 714.246 436.805 716.961 433.465 716.961ZM322.916 716.961C319.575 716.961 316.859 714.246 316.859 710.91V679.387C316.859 676.051 319.575 673.332 322.916 673.332C326.257 673.332 328.97 676.051 328.97 679.387V710.91C328.97 714.246 326.257 716.961 322.916 716.961ZM476.764 976.639C475.142 976.639 473.619 976.011 472.48 974.87L443.98 946.383C442.842 945.245 442.21 943.722 442.21 942.104C442.21 940.483 442.842 938.964 443.98 937.822C445.061 936.742 446.618 936.124 448.264 936.124C449.909 936.124 451.469 936.742 452.547 937.822L481.047 966.309C483.408 968.67 483.408 972.509 481.047 974.87C479.905 976.011 478.385 976.639 476.764 976.639ZM488.745 1029C485.405 1029 482.689 1026.29 482.689 1022.95V991.426C482.689 988.09 485.405 985.371 488.745 985.371C492.083 985.371 494.799 988.09 494.799 991.426V1022.95C494.799 1026.29 492.083 1029 488.745 1029ZM389.554 976.639C387.933 976.639 386.412 976.011 385.271 974.87C384.132 973.728 383.504 972.209 383.504 970.591C383.504 968.97 384.132 967.447 385.271 966.309L413.767 937.822C414.848 936.742 416.406 936.124 418.051 936.124C419.696 936.124 421.253 936.742 422.334 937.822C423.472 938.964 424.101 940.483 424.101 942.104C424.101 943.722 423.472 945.245 422.334 946.383L393.837 974.87C392.695 976.011 391.175 976.639 389.554 976.639ZM433.465 924.987C430.127 924.987 427.411 922.272 427.411 918.936V887.413C427.411 884.077 430.127 881.358 433.465 881.358C436.805 881.358 439.521 884.077 439.521 887.413V918.936C439.521 922.272 436.805 924.987 433.465 924.987ZM89.8278 456.567C88.2064 456.567 86.6863 455.942 85.5445 454.805L57.0476 426.314C55.9058 425.173 55.2743 423.653 55.2743 422.036C55.2743 420.415 55.9058 418.892 57.0476 417.754C58.1286 416.67 59.6858 416.052 61.3309 416.052C62.976 416.052 64.5333 416.67 65.6142 417.754L94.1109 446.237C96.4721 448.598 96.4721 452.441 94.1109 454.805C92.9725 455.942 91.4492 456.567 89.8278 456.567ZM255.657 352.554C254.035 352.554 252.512 351.926 251.374 350.785L222.877 322.301C221.735 321.16 221.103 319.64 221.103 318.023C221.103 316.402 221.735 314.879 222.877 313.741C223.954 312.657 225.512 312.039 227.157 312.039C228.802 312.039 230.363 312.657 231.443 313.741L259.94 342.224C262.301 344.585 262.301 348.424 259.94 350.785C258.798 351.926 257.278 352.554 255.657 352.554ZM267.639 404.922C264.298 404.922 261.585 402.207 261.585 398.867V367.348C261.585 364.008 264.298 361.29 267.639 361.29C270.976 361.29 273.692 364.008 273.692 367.348V398.867C273.692 402.207 270.976 404.922 267.639 404.922ZM145.105 352.554C143.484 352.554 141.964 351.926 140.819 350.785L112.325 322.301C111.18 321.16 110.548 319.64 110.548 318.023C110.548 316.402 111.18 314.879 112.325 313.741C113.406 312.657 114.963 312.039 116.605 312.039C118.254 312.039 119.814 312.657 120.892 313.741L149.392 342.224C151.75 344.585 151.75 348.424 149.392 350.785C148.25 351.926 146.73 352.554 145.105 352.554ZM168.451 352.554C166.822 352.554 165.306 351.926 164.167 350.785C163.026 349.647 162.397 348.124 162.397 346.506C162.397 344.885 163.026 343.366 164.167 342.224L192.661 313.741C193.742 312.657 195.299 312.039 196.944 312.039C198.589 312.039 200.146 312.657 201.227 313.738C202.369 314.879 202.997 316.402 202.997 318.023C202.997 319.64 202.369 321.16 201.227 322.301L172.73 350.785C171.589 351.929 170.069 352.554 168.451 352.554ZM57.8956 352.554C56.2742 352.554 54.7541 351.926 53.6123 350.785C52.4739 349.647 51.8456 348.124 51.8456 346.506C51.8456 344.885 52.4739 343.366 53.6123 342.224L82.109 313.741C83.1899 312.657 84.7472 312.039 86.3923 312.039C88.0374 312.039 89.5947 312.657 90.6723 313.738C91.8141 314.879 92.4423 316.402 92.4423 318.023C92.4423 319.64 91.8141 321.16 90.6723 322.301L62.1754 350.785C61.037 351.929 59.517 352.554 57.8956 352.554ZM101.81 300.909C98.4721 300.909 95.756 298.194 95.756 294.854V263.335C95.756 259.995 98.4721 257.277 101.81 257.277C105.15 257.277 107.866 259.995 107.866 263.335V294.854C107.866 298.194 105.15 300.909 101.81 300.909ZM34.5502 352.554C32.9288 352.554 31.4087 351.926 30.2669 350.785L1.77003 322.301C0.628263 321.16 0 319.64 0 318.023C0 316.402 0.628263 314.879 1.77003 313.741C2.84761 312.657 4.40496 312.039 6.05004 312.039C7.69851 312.039 9.2557 312.657 10.3367 313.741L38.8336 342.224C41.1948 344.585 41.1948 348.424 38.8336 350.785C37.6918 351.926 36.1717 352.554 34.5502 352.554ZM46.532 404.922C43.1911 404.922 40.4786 402.207 40.4786 398.867V367.348C40.4786 364.008 43.1911 361.29 46.532 361.29C49.8728 361.29 52.5886 364.008 52.5886 367.348V398.867C52.5886 402.207 49.8728 404.922 46.532 404.922Z" fill="url(#paint0_linear_1_77)"/>
<defs>
<linearGradient id="paint0_linear_1_77" x1="960" y1="0" x2="960" y2="1029" gradientUnits="userSpaceOnUse">
<stop stop-color="white"/>
<stop offset="1" stop-color="#EAEAEA" stop-opacity="0.5"/>
</linearGradient>
</defs>
</svg>
