<?xml version="1.0" encoding="UTF-8" standalone="no"?>
<svg
   width="1248.9685"
   height="163.92693"
   viewBox="0 -50 1248.9685 164.06231"
   fill="none"
   version="1.1"
   id="svg3"
   sodipodi:docname="top-shapes.svg"
   inkscape:version="1.4.2 (f4327f4, 2025-05-13)"
   xmlns:inkscape="http://www.inkscape.org/namespaces/inkscape"
   xmlns:sodipodi="http://sodipodi.sourceforge.net/DTD/sodipodi-0.dtd"
   xmlns="http://www.w3.org/2000/svg"
   xmlns:svg="http://www.w3.org/2000/svg">
  <defs
     id="defs3" />
  <sodipodi:namedview
     id="namedview3"
     pagecolor="#ffffff"
     bordercolor="#000000"
     borderopacity="0.25"
     inkscape:showpageshadow="2"
     inkscape:pageopacity="0.0"
     inkscape:pagecheckerboard="0"
     inkscape:deskcolor="#d1d1d1"
     inkscape:zoom="0.52491959"
     inkscape:cx="597.23433"
     inkscape:cy="494.36143"
     inkscape:window-width="1920"
     inkscape:window-height="991"
     inkscape:window-x="-9"
     inkscape:window-y="449"
     inkscape:window-maximized="1"
     inkscape:current-layer="svg3" />
  <path
     d="m 140.03484,114.0623 c -6.6,0 -12.783,-2.544 -17.414,-7.152 L 6.6972668,-8.44894 c -4.65678,-4.62116 -7.21342999,-10.77396 -7.21342999,-17.32916 0,-6.5552 2.55664999,-12.7211 7.21342999,-17.3422 C 11.080137,-47.4948 17.419637,-50 24.111237,-50 c 6.6917,0 13.0442,2.5052 17.4271,6.8797 L 157.46184,72.2388 c 9.601,9.5538 9.601,25.1046 0,34.6715 -4.63,4.608 -10.826,7.152 -17.427,7.152 z"
     fill="#2cbceb"
     id="path1" />
  <path
     d="m 1109.8838,114.0623 c -6.56,0 -12.71,-2.544 -17.31,-7.152 -4.61,-4.621 -7.15,-10.7871 -7.15,-17.3423 0,-6.5552 2.54,-12.7081 7.15,-17.3292 l 115.15,-115.3591 c 4.35,-4.3745 10.65,-6.8797 17.3,-6.8797 6.64,0 12.94,2.5052 17.29,6.8797 4.63,4.6211 7.17,10.787 7.17,17.3422 0,6.5552 -2.54,12.708 -7.17,17.32916 l -115.14,115.35924 c -4.59,4.608 -10.73,7.152 -17.29,7.152 z"
     fill="#f4b250"
     id="path2" />
</svg>
