<?xml version="1.0" encoding="UTF-8" standalone="no"?><!DOCTYPE svg PUBLIC "-//W3C//DTD SVG 1.1//EN" "http://www.w3.org/Graphics/SVG/1.1/DTD/svg11.dtd"><svg width="100%" height="100%" viewBox="0 0 5092 480" version="1.1" xmlns="http://www.w3.org/2000/svg" xmlns:xlink="http://www.w3.org/1999/xlink" xml:space="preserve" xmlns:serif="http://www.serif.com/" style="fill-rule:evenodd;clip-rule:evenodd;stroke-linejoin:round;stroke-miterlimit:2;"><g id="top-shapes"><path d="M293.87,0l306.038,304.548c40.005,39.808 40.005,104.603 0,144.465c-19.291,19.2 -45.108,29.8 -72.612,29.8c-27.5,-0 -53.263,-10.601 -72.559,-29.801l-451.209,-449.012l290.342,-0Z" style="fill:#2cbceb;"/><path d="M5088.53,0l-448.16,449.013c-19.125,19.2 -44.708,29.8 -72.042,29.8c-27.333,-0 -52.958,-10.601 -72.125,-29.801c-19.208,-19.254 -29.791,-44.945 -29.791,-72.259c-0,-27.313 10.583,-52.95 29.791,-72.205l303.997,-304.548l288.33,-0Z" style="fill:#f4b250;"/></g></svg>